<svg width="25" height="25" viewBox="0 0 25 25" fill="none" xmlns="http://www.w3.org/2000/svg">
<g clip-path="url(#clip0_81_4342)">
<mask id="mask0_81_4342" style="mask-type:luminance" maskUnits="userSpaceOnUse" x="0" y="0" width="25" height="25">
<path d="M0.957031 0.124023H24.957V24.124H0.957031V0.124023Z" fill="white"/>
</mask>
<g mask="url(#mask0_81_4342)">
<path d="M22.2871 18.787C21.9241 19.626 21.4941 20.397 20.9971 21.107C20.3181 22.075 19.7631 22.744 19.3351 23.117C18.6711 23.727 17.9601 24.039 17.1981 24.057C16.6521 24.057 15.9921 23.901 15.2251 23.586C14.4551 23.272 13.7471 23.116 13.1011 23.116C12.4221 23.116 11.6941 23.272 10.9161 23.586C10.1361 23.901 9.50912 24.066 9.02812 24.082C8.29812 24.113 7.57012 23.792 6.84412 23.116C6.38012 22.712 5.80012 22.018 5.10512 21.036C4.36012 19.987 3.74712 18.771 3.26712 17.384C2.75312 15.887 2.49512 14.436 2.49512 13.032C2.49512 11.424 2.84312 10.037 3.53912 8.87398C4.06551 7.96151 4.81845 7.20031 5.72512 6.66398C6.61877 6.12883 7.63855 5.84067 8.68012 5.82898C9.26012 5.82898 10.0201 6.00898 10.9651 6.36098C11.9081 6.71498 12.5131 6.89398 12.7781 6.89398C12.9771 6.89398 13.6491 6.68398 14.7881 6.26598C15.8661 5.87798 16.7761 5.71798 17.5211 5.78098C19.5411 5.94398 21.0571 6.74098 22.0661 8.17398C20.2601 9.26798 19.3671 10.801 19.3851 12.767C19.4011 14.298 19.9571 15.573 21.0481 16.584C21.5431 17.054 22.0961 17.417 22.7111 17.674C22.5821 18.0496 22.4407 18.4208 22.2871 18.787ZM17.6561 0.563984C17.6561 1.76398 17.2171 2.88498 16.3431 3.92198C15.2891 5.15598 14.0131 5.86798 12.6291 5.75598C12.6109 5.60501 12.6019 5.45306 12.6021 5.30098C12.6021 4.14898 13.1031 2.91498 13.9941 1.90698C14.4391 1.39698 15.0041 0.971984 15.6901 0.633984C16.3751 0.299984 17.0221 0.115984 17.6301 0.0839844C17.6491 0.243984 17.6561 0.403984 17.6561 0.563984Z" fill="black"/>
</g>
</g>
<defs>
<clipPath id="clip0_81_4342">
<rect width="24" height="24" fill="white" transform="translate(0.495117 0.0839844)"/>
</clipPath>
</defs>
</svg>
