<svg width="25" height="25" viewBox="0 0 25 25" fill="none" xmlns="http://www.w3.org/2000/svg">
<g clip-path="url(#clip0_81_4334)">
<path fill-rule="evenodd" clip-rule="evenodd" d="M17.349 6.63208C16.1101 5.4511 14.4565 4.8046 12.745 4.83208C9.61503 4.83208 6.95503 6.94508 6.00803 9.78908C5.50551 11.2792 5.50551 12.893 6.00803 14.3831H6.01203C6.96503 17.2231 9.61903 19.3351 12.75 19.3351C14.366 19.3351 15.753 18.9221 16.828 18.1921V18.1891C17.4535 17.7747 17.9885 17.2379 18.4008 16.6111C18.8131 15.9843 19.0942 15.2805 19.227 14.5421H12.745V9.92208H24.065C24.206 10.7241 24.272 11.5441 24.272 12.3601C24.272 16.0101 22.968 19.0951 20.698 21.1851L20.701 21.1871C18.711 23.0211 15.982 24.0841 12.745 24.0841C10.5207 24.0842 8.34014 23.4661 6.44667 22.2989C4.55319 21.1317 3.02133 19.4613 2.02203 17.4741C1.1827 15.802 0.745605 13.957 0.745605 12.0861C0.745605 10.2152 1.1827 8.37015 2.02203 6.69808C3.02041 4.70983 4.55195 3.03834 6.44555 1.87037C8.33914 0.702386 10.5202 0.0839249 12.745 0.0840821C15.7245 0.0483537 18.6022 1.16717 20.775 3.20608L17.349 6.63208Z" fill="black"/>
</g>
<defs>
<clipPath id="clip0_81_4334">
<rect width="24" height="24" fill="white" transform="translate(0.504883 0.0839844)"/>
</clipPath>
</defs>
</svg>
