<svg width="20" height="33" viewBox="0 0 20 33" fill="none" xmlns="http://www.w3.org/2000/svg">
<path fill-rule="evenodd" clip-rule="evenodd" d="M11.1499 15.459C13.3021 15.459 15.2839 11.9207 15.2839 11.9207C17.6994 11.9207 19.5 8.92024 19.5 0.0976562H15.2002V2.09606L15.054 2.21106C15.054 2.21106 12.0023 1.64649 10.0008 1.64649C7.9977 1.64649 4.9475 2.21106 4.9475 2.21106L4.8014 2.09606V0.0976562H0.5C0.5 8.92024 2.3006 11.9207 4.7177 11.9207C4.7177 11.9207 6.6979 15.459 8.8516 15.459V16.7509C8.8516 16.7509 9.0312 17.4051 9.0312 18.1235C9.0312 20.5745 4.0495 22.5804 4.0495 23.702C4.0495 24.8252 4.0495 28.4904 4.0495 28.4904C4.0495 28.4904 3.089 28.6398 3.089 29.8227C3.089 31.0056 6.2793 32.3618 10.0008 32.3618C13.7222 32.3618 16.911 31.0056 16.911 29.8227C16.911 28.6398 15.9505 28.4904 15.9505 28.4904C15.9505 28.4904 15.9505 24.8252 15.9505 23.702C15.9505 22.5804 10.9688 20.5745 10.9688 18.1235C10.9688 17.4051 11.1499 16.7509 11.1499 16.7509V15.459ZM15.2834 3.21457L15.3017 3.21755L15.7842 2.83968L16.1479 2.5559V1.04291H18.5437C18.4417 7.45634 17.294 10.9721 15.2834 10.9736V3.21457ZM4.7164 10.9736C2.7057 10.9721 1.5581 7.45634 1.4561 1.04291H3.8518V2.5559L4.2156 2.83968L4.3617 2.95319L4.6981 3.21755L4.7164 3.21457V10.9736Z" fill="#3E31FA"/>
</svg>
