<svg width="24" height="31" viewBox="0 0 24 31" fill="none" xmlns="http://www.w3.org/2000/svg">
<path fill-rule="evenodd" clip-rule="evenodd" d="M18.3345 1.09821C18.281 0.872726 18.2359 0.683885 18.1922 0.497865C17.6214 0.471085 17.0788 0.445715 16.5362 0.418945C15.0239 0.418945 8.9747 0.418945 7.4624 0.418945C6.9212 0.445715 6.3786 0.471085 5.8078 0.497865C5.7627 0.683885 5.7176 0.872726 5.664 1.09821C3.9502 1.09821 2.2336 1.09821 0.5 1.09821C0.70295 1.78733 0.91295 2.43136 1.07926 3.08666C1.51759 4.82144 1.88826 6.57592 2.3731 8.29663C3.1976 11.225 5.0383 13.4587 7.2623 15.3964C7.8754 15.9305 8.5519 16.3899 9.22 16.855C9.4384 17.0072 9.5737 17.1453 9.5441 17.4285C9.5202 17.654 9.5624 17.888 9.5328 18.112C9.4793 18.5334 9.5808 18.8124 10.0896 18.804C9.7414 19.8708 9.1636 20.643 8.0868 20.9517C7.5287 21.1109 6.9776 21.3012 6.4293 21.497C5.7345 21.7465 5.3737 22.2609 5.3469 23.0021C5.3004 24.2831 5.2539 25.5641 5.2088 26.8451C5.1989 27.1115 5.2426 27.3821 4.941 27.5526C4.8508 27.6019 4.841 27.7978 4.7846 27.9528C4.4816 27.9993 4.1658 28.074 3.8473 28.0881C3.5161 28.1036 3.3047 28.1882 3.3893 28.5926C3.2117 28.6504 3.0538 28.7011 2.8734 28.7603C2.8734 29.0774 2.8734 29.3987 2.8734 29.7919C3.7952 29.9723 6.6844 30.8601 11.9993 30.8601C17.3156 30.8601 20.2034 29.9723 21.1266 29.7919C21.1266 29.3987 21.1266 29.0774 21.1266 28.7603C20.9462 28.7011 20.7883 28.6504 20.6107 28.5926C20.6953 28.1882 20.4839 28.1036 20.1513 28.0881C19.8327 28.074 19.5184 27.9993 19.214 27.9528C19.159 27.7978 19.1478 27.6019 19.059 27.5526C18.7574 27.3821 18.7997 27.1115 18.7912 26.8451C18.7447 25.5641 18.6996 24.2831 18.6531 23.0021C18.6249 22.2609 18.2655 21.7465 17.5692 21.497C17.0224 21.3012 16.4713 21.1109 15.9132 20.9517C14.835 20.643 14.2586 19.8708 13.9104 18.804C14.4178 18.8124 14.5207 18.5334 14.4657 18.112C14.4376 17.888 14.4798 17.654 14.4559 17.4285C14.4263 17.1453 14.5602 17.0072 14.78 16.855C15.4467 16.3899 16.1246 15.9305 16.7377 15.3964C18.9603 13.4587 20.8024 11.225 21.6269 8.29663C22.1117 6.57592 22.4824 4.82144 22.9207 3.08666C23.0856 2.43136 23.297 1.78733 23.5 1.09821C21.765 1.09821 20.0498 1.09821 18.3345 1.09821ZM9.5323 16.3388C9.2025 16.1274 8.9319 16.0062 8.7233 15.8146C6.7516 14.0149 5.2153 11.887 4.3359 9.34053C3.6438 7.32953 2.9913 5.29032 2.9279 3.12431C2.9251 3.03975 2.9279 2.9552 2.9279 2.82978C3.8172 2.82978 4.6643 2.82978 5.5592 2.82978C5.5592 3.0468 5.579 3.24269 5.5564 3.43434C5.4169 4.6308 5.679 5.78633 5.8932 6.94623C6.0525 7.81433 6.5486 8.50903 7.0786 9.17703C8.0229 10.3678 8.7318 11.6826 9.0729 13.1793C9.18 13.6485 9.2053 14.1376 9.2786 14.6153C9.3406 15.0197 9.2138 15.4608 9.5225 15.8258C9.5887 15.9033 9.5323 16.088 9.5323 16.3388ZM21.0714 3.12431C21.0066 5.29032 20.3554 7.32953 19.662 9.34053C18.7839 11.887 17.2463 14.0149 15.276 15.8146C15.0674 16.0062 14.7968 16.1274 14.467 16.3388C14.467 16.088 14.4106 15.9033 14.4754 15.8258C14.7855 15.4608 14.6586 15.0197 14.7206 14.6153C14.7925 14.1376 14.8193 13.6485 14.9264 13.1793C15.2675 11.6826 15.975 10.3678 16.9193 9.17703C17.4507 8.50903 17.9468 7.81433 18.106 6.94623C18.3188 5.78633 18.5824 4.6308 18.4429 3.43434C18.4203 3.24269 18.4401 3.0468 18.4401 2.82978C19.3336 2.82978 20.1821 2.82978 21.0714 2.82978C21.0714 2.9552 21.0742 3.03975 21.0714 3.12431Z" fill="#3E31FA"/>
</svg>
