<svg width="18" height="31" viewBox="0 0 18 31" fill="none" xmlns="http://www.w3.org/2000/svg">
<path d="M16.9156 29.7507C16.9156 29.7507 17.0326 29.4751 17.0493 29.4095C17.066 29.3439 16.8187 27.9661 16.8187 27.9661C16.8087 27.9596 16.7752 27.953 16.7251 27.9563V23.436H16.7318L16.7251 23.4261V23.3966H16.7084L15.2011 20.6936H13.647V19.3945H12.8215C12.8081 18.8467 12.4505 18.4071 12.153 18.1316C11.9391 17.9315 11.7586 17.8134 11.7586 17.8134H11.6718C9.97063 17.61 10.0441 15.9665 10.0942 15.527C10.776 15.2645 11.2406 14.7659 11.2406 14.1919C11.2406 13.69 10.8863 13.2438 10.3416 12.965C13.0387 12.6468 14.2018 11.6069 14.6931 10.6753C16.7385 8.73003 17.7244 8.72683 17.8414 8.56603C17.925 7.38183 16.6449 7.59183 16.6449 7.59183L14.9872 8.80883C14.9872 8.80883 14.9939 8.83503 14.9805 8.90393C14.7399 8.40533 14.1182 8.07403 14.0815 8.05433C14.0781 6.68643 13.9311 2.83524 16.2472 0.880136C15.7659 0.837486 1.75553 0.794846 1.71213 0.837486C1.71213 0.837486 4.27223 2.84508 3.93133 8.09363H3.92463C3.92463 8.09363 3.39323 8.16913 2.98883 8.86783C2.98213 8.82193 2.98213 8.79893 2.98883 8.80883L1.32773 7.59183C1.32773 7.59183 0.0510279 7.38183 0.134628 8.56603C0.251628 8.72683 1.28093 8.72683 3.41993 10.8065C3.42333 10.8164 3.42333 10.8065 3.41993 10.7803C4.29893 12.3549 6.28423 12.8043 7.65453 12.965C7.10973 13.2438 6.75883 13.6867 6.75883 14.1886C6.75883 14.7561 7.21003 15.2481 7.87843 15.5139C7.91523 15.9895 7.94523 17.8003 6.30763 17.8036C6.15053 17.8036 6.32093 17.8036 6.68193 17.8101H6.28753C6.28753 17.8101 6.11043 17.9151 5.89653 18.1053C5.58903 18.3776 5.20133 18.8303 5.19463 19.3945H4.35243V20.6936H2.76823L1.30103 23.3966V23.4031V27.9563C1.23423 27.953 1.19403 27.9563 1.18073 27.9661C1.18073 27.9661 0.933428 29.3472 0.950128 29.4095C0.966828 29.4751 1.08383 29.7507 1.08383 29.7507C1.08383 29.7507 -0.176172 29.9442 0.020928 30.5609C0.244928 30.866 1.03363 30.8693 1.23083 30.7249C1.96943 30.0131 2.68803 29.5014 2.96873 29.3111H15.0306C15.308 29.5014 16.0299 30.0131 16.7686 30.7249C16.9691 30.8726 17.7578 30.8693 17.9784 30.5609C18.179 29.9442 16.9156 29.7507 16.9156 29.7507Z" fill="#3E31FA"/>
</svg>
