<svg width="16" height="32" viewBox="0 0 16 32" fill="none" xmlns="http://www.w3.org/2000/svg">
<path d="M10.7301 25.524C10.7301 25.524 10.0586 24.277 10.0586 22.9525C10.0586 21.628 10.8408 20.4917 10.8408 20.4917C10.8408 20.4917 15.6 16.7508 15.6 10.0399C15.6 5.07036 13.8476 2.83832 13.8476 2.83832V0.86084H2.15242V2.83463C2.15242 2.83463 0.400024 5.06667 0.400024 10.0362C0.400024 16.7471 5.15923 20.488 5.15923 20.488C5.15923 20.488 5.94143 21.6243 5.94143 22.9488C5.94143 24.2733 5.26992 25.5203 5.26992 25.5203C5.26992 25.5203 4.76812 25.6531 4.62432 25.8376C4.48042 26.022 3.91593 30.8218 3.91593 30.8218C3.91593 30.8218 4.71653 31.9581 8.00373 31.9581C11.2909 31.9581 12.0915 30.8218 12.0915 30.8218C12.0915 30.8218 11.527 26.022 11.3831 25.8376C11.2392 25.6531 10.7375 25.5203 10.7375 25.5203L10.7301 25.524ZM2.15242 14.5519C1.14152 10.4125 2.40702 8.88509 2.40702 8.88509C2.40702 8.88509 2.82393 12.4675 3.64293 14.9245C4.46193 17.3853 6.35822 20.0269 6.35822 20.0269C6.35822 20.0269 3.16703 18.6913 2.15613 14.5519H2.15242ZM12.3571 14.9282C13.1761 12.4675 13.593 8.88879 13.593 8.88879C13.593 8.88879 14.8584 10.4162 13.8476 14.5556C12.8367 18.695 9.64542 20.0306 9.64542 20.0306C9.64542 20.0306 11.5417 17.389 12.3608 14.9282H12.3571Z" fill="#3E31FA"/>
</svg>
