<svg width="20" height="30" viewBox="0 0 20 30" fill="none" xmlns="http://www.w3.org/2000/svg">
<path fill-rule="evenodd" clip-rule="evenodd" d="M18.6921 1.67493C18.2278 0.985452 17.2197 0.546452 16.4636 0.720172C15.3925 0.965252 14.7488 1.75169 14.6981 2.87882C14.6666 3.54002 14.8145 4.16082 14.9802 4.76142C14.8994 4.74257 14.8214 4.72775 14.7515 4.71563C13.3243 4.46785 11.808 4.32646 10.2452 4.29144C9.99043 4.28606 9.73563 4.28336 9.48093 4.28336C7.81813 4.28336 6.45793 4.42072 5.19923 4.71563C5.14993 4.72775 5.08553 4.74257 5.01843 4.76411C5.11433 4.42207 5.20883 4.07194 5.26223 3.70835C5.40603 2.76301 5.23623 2.00755 4.74443 1.40022C4.38013 0.950442 3.81583 0.691892 3.19393 0.691892C2.45023 0.691892 1.75163 1.04874 1.32843 1.6453C0.718927 2.50311 0.428527 3.52925 0.466927 4.69678C0.512127 6.12822 0.675127 7.40352 0.962727 8.59392C1.41203 10.4496 1.98313 12.343 2.65843 14.2215C2.83233 14.7036 2.99813 15.1897 3.16383 15.6745C3.30493 16.0893 3.44603 16.5027 3.59253 16.9161L4.14593 18.4742V18.4648C4.57323 19.7656 5.15263 21.1015 5.82243 21.9687C5.93613 22.1155 6.05663 22.2569 6.17853 22.3996C6.47163 22.7444 6.74833 23.0689 6.89353 23.4554C6.97573 23.6695 7.15513 24.1476 7.61403 24.3927C7.57843 24.5502 7.52223 24.6297 7.29353 24.6849C7.00993 24.7536 6.72783 24.8182 6.44293 24.8815C5.62523 25.0592 4.99243 25.5871 4.50613 26.4974C4.09253 27.2718 4.34453 28.1982 5.10473 28.7005C5.42663 28.912 5.78413 29.0816 6.19633 29.219C7.31813 29.5947 8.51663 29.7765 9.86173 29.7765C10.5068 29.7765 11.1848 29.7348 11.9368 29.6499C13.0818 29.5206 14.0228 29.2244 14.8131 28.745C15.6788 28.2211 15.9459 27.2691 15.4637 26.4274C15.1391 25.8591 14.5803 25.0781 13.4873 24.8626C13.2681 24.8195 13.0517 24.7616 12.8353 24.7024L12.5326 24.6216C12.4819 24.6095 12.4559 24.592 12.3915 24.3913C12.4093 24.3819 12.4271 24.3725 12.4449 24.3617C12.6052 24.2701 12.6887 24.1395 12.7408 24.0425C13.0298 23.7826 13.1832 23.4716 13.3202 23.1928C13.4065 23.0218 13.4859 22.8602 13.6133 22.7053C14.2831 21.892 14.9775 21.049 15.4364 20.0094C15.9678 18.8082 16.3431 17.5275 16.5321 16.5041C17.0841 15.0133 17.6334 13.396 18.2086 11.5592C19.0017 9.02622 19.4071 7.04262 19.5222 5.12905C19.6044 3.75683 19.3332 2.627 18.6921 1.67493ZM15.587 6.85432C15.6938 6.85432 15.7897 6.80722 15.8733 6.71292C16.2965 6.23762 16.213 5.63432 16.1458 5.15085L16.1198 4.96367C16.0842 4.66472 16.0253 4.36846 15.9664 4.0722C15.902 3.75574 15.8418 3.45544 15.8089 3.1511C15.7514 2.59898 15.9322 2.23404 16.3486 2.06571C16.7197 1.91623 17.1964 2.07648 17.5361 2.46297C18.1401 3.15245 18.2346 4.01295 18.2483 4.84113C18.2744 6.60122 17.9662 8.42592 17.2827 10.5859C17.2279 10.7555 17.169 10.9239 17.1142 11.0922L17.1361 10.7892C17.1663 10.3906 17.1964 9.99202 17.232 9.59472C17.258 9.31332 17.1854 8.93082 16.6978 8.70602C16.2732 8.50932 15.8541 8.29122 15.4514 8.05552C15.2966 7.96532 15.1747 7.86572 15.0912 7.70542C15.2898 7.47382 15.4418 7.15332 15.5528 6.84892C15.5651 6.85032 15.5747 6.85432 15.587 6.85432ZM4.04543 4.03281C3.97693 4.31426 3.90573 4.60379 3.87553 4.90813C3.84543 5.23532 3.83443 5.58142 3.84273 5.99752C3.84953 6.34232 3.95223 6.59272 4.14543 6.74092C4.22893 6.80422 4.31663 6.83652 4.40563 6.83652C4.41383 6.83652 4.41793 6.83382 4.42483 6.83382C4.52893 7.15702 4.67823 7.51652 4.87413 7.77642C4.80563 7.86942 4.70153 7.96902 4.53573 8.06332L4.42623 8.12522C4.07003 8.32862 3.73173 8.51982 3.38243 8.66522C2.71683 8.94132 2.76203 9.51092 2.77703 9.69812L2.81543 10.2085C2.83873 10.5034 2.86203 10.8037 2.88663 11.1026C2.54693 10.0576 2.23873 8.99382 2.04703 7.91242C1.77853 6.38812 1.58273 5.01182 1.90863 3.60862C2.06073 2.95551 2.32233 2.51516 2.73323 2.22294C3.06333 1.98862 3.38243 1.94418 3.70163 2.09231C4.03443 2.24718 4.19603 2.52054 4.20973 2.95147C4.22213 3.31102 4.13583 3.66249 4.04543 4.03281Z" fill="#3E31FA"/>
</svg>
