<svg width="12" height="33" viewBox="0 0 12 33" fill="none" xmlns="http://www.w3.org/2000/svg">
<path fill-rule="evenodd" clip-rule="evenodd" d="M6 32.7023C2.6874 32.7023 0 32.0361 0 31.57C0 31.5391 0.0132004 31.5097 0.0368004 31.4788L1.7931 27.0233C1.7931 26.9247 1.9667 26.8307 2.2726 26.7499C3.0169 24.9927 6.9914 14.5142 0.5222 4.4357L0.962 3.98721C0.962 3.98721 1.4533 4.64009 2.0785 5.86204C2.0226 5.59148 1.9931 5.31062 1.9931 5.02241C1.9931 2.76674 3.7862 0.9375 5.9941 0.9375C8.0049 0.9375 9.6715 2.455 9.9524 4.43129L9.973 4.44599C10.0275 4.33277 10.0583 4.27395 10.0583 4.27395L10.657 3.66371C11.2013 3.95045 11.4013 4.42394 11.4013 4.42394C4.6158 15.3362 9.0375 24.9911 10.0069 26.8424C10.1363 26.8997 10.2069 26.9601 10.2069 27.0233L11.9647 31.4788C11.9868 31.5097 12 31.5391 12 31.57C12 32.0361 9.314 32.7023 6 32.7023ZM5.7651 9.10355C4.581 9.03445 3.5351 8.44035 2.8453 7.54485C4.403 11.3681 5.921 18.0674 2.96 26.6166C3.5086 26.5357 4.2176 26.477 5.0134 26.4505C5.362 24.2713 5.9754 18.9217 5.7651 9.10355Z" fill="#3E31FA"/>
</svg>
