<svg width="28" height="29" viewBox="0 0 28 29" fill="none" xmlns="http://www.w3.org/2000/svg">
<path fill-rule="evenodd" clip-rule="evenodd" d="M16.6649 17.5633C16.0186 17.7718 15.3392 17.9065 14.6365 17.9575V27.3669H16.6649V17.5633ZM17.9376 28.6396H16.6649H14.6365H13.3638H11.3354H10.0626H8.0341H6.7614H0.556824V27.3669H6.7614V14.0845C5.8564 12.7153 5.3296 11.0742 5.3296 9.31015C5.3296 4.52154 9.2114 0.639648 14 0.639648C18.7886 0.639648 22.6705 4.52154 22.6705 9.31015C22.6705 11.0741 22.1437 12.7151 21.2388 14.0843V27.3669H27.4432V28.6396H21.2388H19.966H17.9376ZM19.966 27.3669H17.9376V17.0369C18.6825 16.6565 19.3651 16.1717 19.966 15.6016V27.3669ZM8.0341 27.3669H10.0626V17.037C9.3177 16.6567 8.6351 16.1718 8.0341 15.6017V27.3669ZM11.3354 27.3669H13.3638V17.9575C12.6611 17.9066 11.9817 17.7719 11.3354 17.5634V27.3669Z" fill="#3E31FA"/>
</svg>
