<svg width="17" height="17" viewBox="0 0 17 17" fill="none" xmlns="http://www.w3.org/2000/svg">
<g clip-path="url(#clip0_41_2030)">
<path fill-rule="evenodd" clip-rule="evenodd" d="M1.83333 3.60042V10.2671H15.1667V3.60042H1.83333ZM9.16667 11.6004H15.502C16.0607 11.6004 16.5 11.1471 16.5 10.6004V3.26709C16.5 2.72042 16.0607 2.26709 15.502 2.26709H1.49533C0.933333 2.26709 0.5 2.72576 0.5 3.26709V10.6004C0.5 11.1418 0.932667 11.6004 1.496 11.6004H7.83333V12.9918C7.38667 13.0618 6.93533 13.1851 6.57467 13.2971C6.24629 13.3997 5.92185 13.5144 5.602 13.6411L5.586 13.6478L5.58133 13.6498L5.58 13.6504C5.41645 13.7177 5.28632 13.8472 5.21825 14.0104C5.15017 14.1736 5.14972 14.3572 5.217 14.5208C5.28428 14.6843 5.41377 14.8144 5.57699 14.8825C5.74021 14.9506 5.92378 14.951 6.08733 14.8838" fill="black"/>
</g>
<defs>
<clipPath id="clip0_41_2030">
<rect width="16" height="16" fill="white" transform="translate(0.5 0.26709)"/>
</clipPath>
</defs>
</svg>
