<svg width="16" height="17" viewBox="0 0 16 17" fill="none" xmlns="http://www.w3.org/2000/svg">
<g clip-path="url(#clip0_80_4413)">
<path fill-rule="evenodd" clip-rule="evenodd" d="M5.98872 0.946619H3.33339C3.21588 0.946656 3.10047 0.977754 2.99885 1.03676C2.89723 1.09576 2.81301 1.18058 2.75472 1.28262L0.110724 5.91195C0.0267707 6.03767 -0.0117256 6.18828 0.00161072 6.33886C0.0149471 6.48944 0.0793161 6.63095 0.184058 6.73995L7.49072 15.3773C7.55331 15.4513 7.63127 15.5107 7.71917 15.5515C7.80708 15.5923 7.90282 15.6134 7.99973 15.6134C8.09663 15.6134 8.19237 15.5923 8.28028 15.5515C8.36818 15.5107 8.44614 15.4513 8.50872 15.3773L15.8154 6.73995C15.9202 6.63074 15.9847 6.489 15.998 6.33819C16.0113 6.18738 15.9728 6.03654 15.8887 5.91062L13.2454 1.28195C13.187 1.18004 13.1028 1.09536 13.0012 1.03647C12.8995 0.977586 12.7842 0.946589 12.6667 0.946619H10.0114C10.0043 0.946505 9.99717 0.946505 9.99006 0.946619H6.01006C6.00295 0.946505 5.99584 0.946505 5.98872 0.946619ZM9.42206 2.27995H6.57806L6.10206 5.61329H9.89806L9.42206 2.27995ZM10.7687 2.27995L11.2447 5.61329H14.1834L12.2794 2.27995H10.7687ZM13.8947 6.94662H11.1594L9.59539 12.0286L13.8947 6.94662ZM8.00006 12.68L9.76406 6.94662H6.23606L8.00006 12.68ZM4.75539 5.61329L5.23139 2.27995H3.72006L1.81672 5.61329H4.75539ZM2.10539 6.94662H4.84072L6.40473 12.0286L2.10539 6.94662Z" fill="black"/>
</g>
<defs>
<clipPath id="clip0_80_4413">
<rect width="16" height="16" fill="white" transform="translate(0 0.280029)"/>
</clipPath>
</defs>
</svg>
