<svg width="16" height="17" viewBox="0 0 16 17" fill="none" xmlns="http://www.w3.org/2000/svg">
<g clip-path="url(#clip0_80_4419)">
<path fill-rule="evenodd" clip-rule="evenodd" d="M2 3.80355C1.82319 3.80355 1.65362 3.87379 1.5286 3.99881C1.40357 4.12383 1.33333 4.2934 1.33333 4.47021V6.16021C2.13 6.62155 2.66667 7.48221 2.66667 8.47021C2.66691 8.93844 2.5438 9.39847 2.30973 9.80399C2.07566 10.2095 1.7389 10.5462 1.33333 10.7802V12.4702C1.33333 12.647 1.40357 12.8166 1.5286 12.9416C1.65362 13.0666 1.82319 13.1369 2 13.1369H9.33333V12.4702C9.33333 12.2934 9.40357 12.1238 9.5286 11.9988C9.65362 11.8738 9.82319 11.8035 10 11.8035C10.1768 11.8035 10.3464 11.8738 10.4714 11.9988C10.5964 12.1238 10.6667 12.2934 10.6667 12.4702V13.1369H14C14.1768 13.1369 14.3464 13.0666 14.4714 12.9416C14.5964 12.8166 14.6667 12.647 14.6667 12.4702V10.7802C14.2611 10.5462 13.9243 10.2095 13.6903 9.80399C13.4562 9.39847 13.3331 8.93844 13.3333 8.47021C13.3333 7.48221 13.87 6.62155 14.6667 6.16021V4.47021C14.6667 4.2934 14.5964 4.12383 14.4714 3.99881C14.3464 3.87379 14.1768 3.80355 14 3.80355H10.6667V4.47021C10.6667 4.64703 10.5964 4.8166 10.4714 4.94162C10.3464 5.06664 10.1768 5.13688 10 5.13688C9.82319 5.13688 9.65362 5.06664 9.5286 4.94162C9.40357 4.8166 9.33333 4.64703 9.33333 4.47021V3.80355H2ZM2 2.47021C1.46957 2.47021 0.96086 2.68093 0.585787 3.056C0.210714 3.43107 3.83966e-07 3.93978 3.83966e-07 4.47021V6.58355C-0.000147713 6.72157 0.0425488 6.85624 0.122197 6.96897C0.201846 7.08169 0.314519 7.16692 0.444667 7.21288C0.704496 7.30499 0.929409 7.47533 1.08847 7.70049C1.24754 7.92564 1.33294 8.19454 1.33294 8.47021C1.33294 8.74589 1.24754 9.01479 1.08847 9.23994C0.929409 9.4651 0.704496 9.63544 0.444667 9.72755C0.314519 9.77351 0.201846 9.85874 0.122197 9.97146C0.0425488 10.0842 -0.000147713 10.2189 3.83966e-07 10.3569V12.4702C3.83966e-07 13.0006 0.210714 13.5094 0.585787 13.8844C0.96086 14.2595 1.46957 14.4702 2 14.4702H14C14.5304 14.4702 15.0391 14.2595 15.4142 13.8844C15.7893 13.5094 16 13.0006 16 12.4702V10.3569C16.0001 10.2189 15.9575 10.0842 15.8778 9.97146C15.7982 9.85874 15.6855 9.77351 15.5553 9.72755C15.2955 9.63544 15.0706 9.4651 14.9115 9.23994C14.7525 9.01479 14.6671 8.74589 14.6671 8.47021C14.6671 8.19454 14.7525 7.92564 14.9115 7.70049C15.0706 7.47533 15.2955 7.30499 15.5553 7.21288C15.6855 7.16692 15.7982 7.08169 15.8778 6.96897C15.9575 6.85624 16.0001 6.72157 16 6.58355V4.47021C16 3.93978 15.7893 3.43107 15.4142 3.056C15.0391 2.68093 14.5304 2.47021 14 2.47021H2ZM10 7.13688C10.1768 7.13688 10.3464 7.20712 10.4714 7.33214C10.5964 7.45717 10.6667 7.62674 10.6667 7.80355V9.13688C10.6667 9.31369 10.5964 9.48326 10.4714 9.60829C10.3464 9.73331 10.1768 9.80355 10 9.80355C9.82319 9.80355 9.65362 9.73331 9.5286 9.60829C9.40357 9.48326 9.33333 9.31369 9.33333 9.13688V7.80355C9.33333 7.62674 9.40357 7.45717 9.5286 7.33214C9.65362 7.20712 9.82319 7.13688 10 7.13688Z" fill="black"/>
</g>
<defs>
<clipPath id="clip0_80_4419">
<rect width="16" height="16" fill="white" transform="translate(0 0.470215)"/>
</clipPath>
</defs>
</svg>
