<svg width="17" height="17" viewBox="0 0 17 17" fill="none" xmlns="http://www.w3.org/2000/svg">
<g clip-path="url(#clip0_41_2025)">
<path fill-rule="evenodd" clip-rule="evenodd" d="M8.49999 1.35715C6.97234 1.35715 5.50727 1.964 4.42706 3.04421C3.34685 4.12442 2.73999 5.5895 2.73999 7.11715C2.73999 7.66755 2.93839 8.30435 3.31023 9.00131C3.67951 9.69315 4.19663 10.4029 4.77967 11.0877C5.94639 12.456 7.32687 13.665 8.15887 14.3491C8.36047 14.5155 8.63887 14.5155 8.84111 14.3491C9.67311 13.665 11.0536 12.456 12.2203 11.0871C12.8034 10.4029 13.3211 9.69315 13.6898 9.00131C14.061 8.30371 14.26 7.66691 14.26 7.11715C14.26 5.5895 13.6531 4.12442 12.5729 3.04421C11.4927 1.964 10.0276 1.35715 8.49999 1.35715ZM1.45999 7.11715C1.45999 3.22915 4.61199 0.0771484 8.49999 0.0771484C12.388 0.0771484 15.54 3.22915 15.54 7.11715C15.54 7.95811 15.243 8.80867 14.8194 9.60355C14.3918 10.4042 13.8133 11.1914 13.1944 11.9178C11.9573 13.3693 10.5115 14.6333 9.65455 15.3379C9.3299 15.6069 8.92156 15.754 8.49999 15.754C8.07843 15.754 7.67008 15.6069 7.34543 15.3379C6.48847 14.6333 5.04271 13.3693 3.80559 11.9178C3.18671 11.1914 2.60751 10.4042 2.18063 9.60355C1.75695 8.80867 1.45999 7.95811 1.45999 7.11715ZM8.49999 5.83715C8.16051 5.83715 7.83494 5.97201 7.59489 6.21205C7.35485 6.4521 7.21999 6.77767 7.21999 7.11715C7.21999 7.45663 7.35485 7.7822 7.59489 8.02224C7.83494 8.26229 8.16051 8.39715 8.49999 8.39715C8.83947 8.39715 9.16504 8.26229 9.40509 8.02224C9.64513 7.7822 9.77999 7.45663 9.77999 7.11715C9.77999 6.77767 9.64513 6.4521 9.40509 6.21205C9.16504 5.97201 8.83947 5.83715 8.49999 5.83715ZM5.93999 7.11715C5.93999 6.43819 6.2097 5.78705 6.6898 5.30695C7.16989 4.82686 7.82104 4.55715 8.49999 4.55715C9.17895 4.55715 9.83009 4.82686 10.3102 5.30695C10.7903 5.78705 11.06 6.43819 11.06 7.11715C11.06 7.7961 10.7903 8.44725 10.3102 8.92734C9.83009 9.40743 9.17895 9.67715 8.49999 9.67715C7.82104 9.67715 7.16989 9.40743 6.6898 8.92734C6.2097 8.44725 5.93999 7.7961 5.93999 7.11715Z" fill="black"/>
</g>
<defs>
<clipPath id="clip0_41_2025">
<rect width="16" height="16" fill="white" transform="translate(0.5 0.0771484)"/>
</clipPath>
</defs>
</svg>
