<svg width="16" height="17" viewBox="0 0 16 17" fill="none" xmlns="http://www.w3.org/2000/svg">
<g clip-path="url(#clip0_80_4408)">
<path fill-rule="evenodd" clip-rule="evenodd" d="M7.99996 1.57004C6.47231 1.57004 5.00724 2.17689 3.92703 3.2571C2.84682 4.33731 2.23996 5.80239 2.23996 7.33004C2.23996 7.88044 2.43836 8.51724 2.8102 9.2142C3.17948 9.90604 3.6966 10.6158 4.27964 11.3006C5.44636 12.6689 6.82684 13.8779 7.65884 14.562C7.86044 14.7284 8.13884 14.7284 8.34108 14.562C9.17308 13.8779 10.5536 12.6689 11.7203 11.3C12.3033 10.6158 12.8211 9.90604 13.1897 9.2142C13.5609 8.5166 13.76 7.8798 13.76 7.33004C13.76 5.80239 13.1531 4.33731 12.0729 3.2571C10.9927 2.17689 9.52761 1.57004 7.99996 1.57004ZM0.959961 7.33004C0.959961 3.44204 4.11196 0.290039 7.99996 0.290039C11.888 0.290039 15.04 3.44204 15.04 7.33004C15.04 8.171 14.743 9.02156 14.3193 9.81644C13.8918 10.6171 13.3132 11.4043 12.6944 12.1307C11.4572 13.5822 10.0115 14.8462 9.15452 15.5508C8.82987 15.8198 8.42153 15.9669 7.99996 15.9669C7.5784 15.9669 7.17005 15.8198 6.8454 15.5508C5.98844 14.8462 4.54268 13.5822 3.30556 12.1307C2.68668 11.4043 2.10748 10.6171 1.6806 9.81644C1.25692 9.02156 0.959961 8.171 0.959961 7.33004ZM7.99996 6.05004C7.66048 6.05004 7.33491 6.1849 7.09486 6.42494C6.85482 6.66499 6.71996 6.99056 6.71996 7.33004C6.71996 7.66952 6.85482 7.99509 7.09486 8.23514C7.33491 8.47518 7.66048 8.61004 7.99996 8.61004C8.33944 8.61004 8.66501 8.47518 8.90506 8.23514C9.1451 7.99509 9.27996 7.66952 9.27996 7.33004C9.27996 6.99056 9.1451 6.66499 8.90506 6.42494C8.66501 6.1849 8.33944 6.05004 7.99996 6.05004ZM5.43996 7.33004C5.43996 6.65108 5.70967 5.99994 6.18977 5.51985C6.66986 5.03975 7.32101 4.77004 7.99996 4.77004C8.67892 4.77004 9.33006 5.03975 9.81015 5.51985C10.2902 5.99994 10.56 6.65108 10.56 7.33004C10.56 8.00899 10.2902 8.66014 9.81015 9.14023C9.33006 9.62033 8.67892 9.89004 7.99996 9.89004C7.32101 9.89004 6.66986 9.62033 6.18977 9.14023C5.70967 8.66014 5.43996 8.00899 5.43996 7.33004Z" fill="black"/>
</g>
<defs>
<clipPath id="clip0_80_4408">
<rect width="16" height="16" fill="white" transform="translate(0 0.290039)"/>
</clipPath>
</defs>
</svg>
