<svg width="17" height="17" viewBox="0 0 17 17" fill="none" xmlns="http://www.w3.org/2000/svg">
<g clip-path="url(#clip0_41_2020)">
<path fill-rule="evenodd" clip-rule="evenodd" d="M5.16666 0.897217C5.34347 0.897217 5.51304 0.967455 5.63806 1.09248C5.76309 1.2175 5.83332 1.38707 5.83332 1.56388V2.23055H11.1667V1.56388C11.1667 1.38707 11.2369 1.2175 11.3619 1.09248C11.4869 0.967455 11.6565 0.897217 11.8333 0.897217C12.0101 0.897217 12.1797 0.967455 12.3047 1.09248C12.4298 1.2175 12.5 1.38707 12.5 1.56388V2.23055H13.1667C13.8739 2.23055 14.5522 2.5115 15.0523 3.0116C15.5524 3.5117 15.8333 4.18997 15.8333 4.89722V13.5639C15.8333 14.2711 15.5524 14.9494 15.0523 15.4495C14.5522 15.9496 13.8739 16.2306 13.1667 16.2306H3.83332C3.12608 16.2306 2.4478 15.9496 1.94771 15.4495C1.44761 14.9494 1.16666 14.2711 1.16666 13.5639V4.89722C1.16666 4.18997 1.44761 3.5117 1.94771 3.0116C2.4478 2.5115 3.12608 2.23055 3.83332 2.23055H4.49999V1.56388C4.49999 1.38707 4.57023 1.2175 4.69525 1.09248C4.82028 0.967455 4.98985 0.897217 5.16666 0.897217ZM3.83332 3.56388C3.4797 3.56388 3.14056 3.70436 2.89051 3.95441C2.64047 4.20446 2.49999 4.54359 2.49999 4.89722V5.56388H14.5V4.89722C14.5 4.54359 14.3595 4.20446 14.1095 3.95441C13.8594 3.70436 13.5203 3.56388 13.1667 3.56388H3.83332ZM14.5 6.89722H2.49999V13.5639C2.49999 13.9175 2.64047 14.2566 2.89051 14.5067C3.14056 14.7567 3.4797 14.8972 3.83332 14.8972H13.1667C13.5203 14.8972 13.8594 14.7567 14.1095 14.5067C14.3595 14.2566 14.5 13.9175 14.5 13.5639V6.89722ZM4.83332 9.56388C4.83332 9.38707 4.90356 9.2175 5.02859 9.09248C5.15361 8.96745 5.32318 8.89722 5.49999 8.89722H6.83332C7.01013 8.89722 7.1797 8.96745 7.30473 9.09248C7.42975 9.2175 7.49999 9.38707 7.49999 9.56388C7.49999 9.74069 7.42975 9.91026 7.30473 10.0353C7.1797 10.1603 7.01013 10.2306 6.83332 10.2306H5.49999C5.32318 10.2306 5.15361 10.1603 5.02859 10.0353C4.90356 9.91026 4.83332 9.74069 4.83332 9.56388ZM9.49999 9.56388C9.49999 9.38707 9.57023 9.2175 9.69525 9.09248C9.82028 8.96745 9.98985 8.89722 10.1667 8.89722H11.5C11.6768 8.89722 11.8464 8.96745 11.9714 9.09248C12.0964 9.2175 12.1667 9.38707 12.1667 9.56388C12.1667 9.74069 12.0964 9.91026 11.9714 10.0353C11.8464 10.1603 11.6768 10.2306 11.5 10.2306H10.1667C9.98985 10.2306 9.82028 10.1603 9.69525 10.0353C9.57023 9.91026 9.49999 9.74069 9.49999 9.56388ZM4.83332 12.2306C4.83332 12.0537 4.90356 11.8842 5.02859 11.7591C5.15361 11.6341 5.32318 11.5639 5.49999 11.5639H6.83332C7.01013 11.5639 7.1797 11.6341 7.30473 11.7591C7.42975 11.8842 7.49999 12.0537 7.49999 12.2306C7.49999 12.4074 7.42975 12.5769 7.30473 12.702C7.1797 12.827 7.01013 12.8972 6.83332 12.8972H5.49999C5.32318 12.8972 5.15361 12.827 5.02859 12.702C4.90356 12.5769 4.83332 12.4074 4.83332 12.2306ZM9.49999 12.2306C9.49999 12.0537 9.57023 11.8842 9.69525 11.7591C9.82028 11.6341 9.98985 11.5639 10.1667 11.5639H11.5C11.6768 11.5639 11.8464 11.6341 11.9714 11.7591C12.0964 11.8842 12.1667 12.0537 12.1667 12.2306C12.1667 12.4074 12.0964 12.5769 11.9714 12.702C11.8464 12.827 11.6768 12.8972 11.5 12.8972H10.1667C9.98985 12.8972 9.82028 12.827 9.69525 12.702C9.57023 12.5769 9.49999 12.4074 9.49999 12.2306Z" fill="black"/>
</g>
<defs>
<clipPath id="clip0_41_2020">
<rect width="16" height="16" fill="white" transform="translate(0.5 0.897217)"/>
</clipPath>
</defs>
</svg>
