<svg width="42" height="41" viewBox="0 0 42 41" fill="none" xmlns="http://www.w3.org/2000/svg">
<g clip-path="url(#clip0_1_4929)">
<path fill-rule="evenodd" clip-rule="evenodd" d="M9.00201 13.1919C9.00201 12.9267 9.10737 12.6723 9.29491 12.4848C9.48244 12.2973 9.7368 12.1919 10.002 12.1919H32.002C32.2672 12.1919 32.5216 12.2973 32.7091 12.4848C32.8967 12.6723 33.002 12.9267 33.002 13.1919C33.002 13.4571 32.8967 13.7115 32.7091 13.899C32.5216 14.0865 32.2672 14.1919 32.002 14.1919H10.002C9.7368 14.1919 9.48244 14.0865 9.29491 13.899C9.10737 13.7115 9.00201 13.4571 9.00201 13.1919ZM9.00201 20.1919C9.00201 19.9267 9.10737 19.6723 9.29491 19.4848C9.48244 19.2973 9.7368 19.1919 10.002 19.1919H32.002C32.2672 19.1919 32.5216 19.2973 32.7091 19.4848C32.8967 19.6723 33.002 19.9267 33.002 20.1919C33.002 20.4571 32.8967 20.7115 32.7091 20.899C32.5216 21.0865 32.2672 21.1919 32.002 21.1919H10.002C9.7368 21.1919 9.48244 21.0865 9.29491 20.899C9.10737 20.7115 9.00201 20.4571 9.00201 20.1919ZM9.00201 27.1919C9.00201 26.9267 9.10737 26.6723 9.29491 26.4848C9.48244 26.2973 9.7368 26.1919 10.002 26.1919H32.002C32.2672 26.1919 32.5216 26.2973 32.7091 26.4848C32.8967 26.6723 33.002 26.9267 33.002 27.1919C33.002 27.4571 32.8967 27.7115 32.7091 27.899C32.5216 28.0865 32.2672 28.1919 32.002 28.1919H10.002C9.7368 28.1919 9.48244 28.0865 9.29491 27.899C9.10737 27.7115 9.00201 27.4571 9.00201 27.1919Z" fill="black"/>
</g>
<defs>
<clipPath id="clip0_1_4929">
<rect width="24" height="24" fill="white" transform="translate(9.00201 8.19189)"/>
</clipPath>
</defs>
</svg>
