<svg width="16" height="17" viewBox="0 0 16 17" fill="none" xmlns="http://www.w3.org/2000/svg">
<g clip-path="url(#clip0_80_4403)">
<path fill-rule="evenodd" clip-rule="evenodd" d="M4.6665 0.110107C4.84332 0.110107 5.01288 0.180345 5.13791 0.30537C5.26293 0.430394 5.33317 0.599963 5.33317 0.776774V1.44344H10.6665V0.776774C10.6665 0.599963 10.7367 0.430394 10.8618 0.30537C10.9868 0.180345 11.1564 0.110107 11.3332 0.110107C11.51 0.110107 11.6796 0.180345 11.8046 0.30537C11.9296 0.430394 11.9998 0.599963 11.9998 0.776774V1.44344H12.6665C13.3737 1.44344 14.052 1.72439 14.5521 2.22449C15.0522 2.72459 15.3332 3.40286 15.3332 4.11011V12.7768C15.3332 13.484 15.0522 14.1623 14.5521 14.6624C14.052 15.1625 13.3737 15.4434 12.6665 15.4434H3.33317C2.62593 15.4434 1.94765 15.1625 1.44755 14.6624C0.947456 14.1623 0.666504 13.484 0.666504 12.7768V4.11011C0.666504 3.40286 0.947456 2.72459 1.44755 2.22449C1.94765 1.72439 2.62593 1.44344 3.33317 1.44344H3.99984V0.776774C3.99984 0.599963 4.07008 0.430394 4.1951 0.30537C4.32012 0.180345 4.48969 0.110107 4.6665 0.110107ZM3.33317 2.77677C2.97955 2.77677 2.64041 2.91725 2.39036 3.1673C2.14031 3.41735 1.99984 3.75649 1.99984 4.11011V4.77677H13.9998V4.11011C13.9998 3.75649 13.8594 3.41735 13.6093 3.1673C13.3593 2.91725 13.0201 2.77677 12.6665 2.77677H3.33317ZM13.9998 6.11011H1.99984V12.7768C1.99984 13.1304 2.14031 13.4695 2.39036 13.7196C2.64041 13.9696 2.97955 14.1101 3.33317 14.1101H12.6665C13.0201 14.1101 13.3593 13.9696 13.6093 13.7196C13.8594 13.4695 13.9998 13.1304 13.9998 12.7768V6.11011ZM4.33317 8.77677C4.33317 8.59996 4.40341 8.43039 4.52843 8.30537C4.65346 8.18035 4.82303 8.11011 4.99984 8.11011H6.33317C6.50998 8.11011 6.67955 8.18035 6.80457 8.30537C6.9296 8.43039 6.99984 8.59996 6.99984 8.77677C6.99984 8.95359 6.9296 9.12315 6.80457 9.24818C6.67955 9.3732 6.50998 9.44344 6.33317 9.44344H4.99984C4.82303 9.44344 4.65346 9.3732 4.52843 9.24818C4.40341 9.12315 4.33317 8.95359 4.33317 8.77677ZM8.99984 8.77677C8.99984 8.59996 9.07008 8.43039 9.1951 8.30537C9.32012 8.18035 9.48969 8.11011 9.6665 8.11011H10.9998C11.1766 8.11011 11.3462 8.18035 11.4712 8.30537C11.5963 8.43039 11.6665 8.59996 11.6665 8.77677C11.6665 8.95359 11.5963 9.12315 11.4712 9.24818C11.3462 9.3732 11.1766 9.44344 10.9998 9.44344H9.6665C9.48969 9.44344 9.32012 9.3732 9.1951 9.24818C9.07008 9.12315 8.99984 8.95359 8.99984 8.77677ZM4.33317 11.4434C4.33317 11.2666 4.40341 11.0971 4.52843 10.972C4.65346 10.847 4.82303 10.7768 4.99984 10.7768H6.33317C6.50998 10.7768 6.67955 10.847 6.80457 10.972C6.9296 11.0971 6.99984 11.2666 6.99984 11.4434C6.99984 11.6203 6.9296 11.7898 6.80457 11.9148C6.67955 12.0399 6.50998 12.1101 6.33317 12.1101H4.99984C4.82303 12.1101 4.65346 12.0399 4.52843 11.9148C4.40341 11.7898 4.33317 11.6203 4.33317 11.4434ZM8.99984 11.4434C8.99984 11.2666 9.07008 11.0971 9.1951 10.972C9.32012 10.847 9.48969 10.7768 9.6665 10.7768H10.9998C11.1766 10.7768 11.3462 10.847 11.4712 10.972C11.5963 11.0971 11.6665 11.2666 11.6665 11.4434C11.6665 11.6203 11.5963 11.7898 11.4712 11.9148C11.3462 12.0399 11.1766 12.1101 10.9998 12.1101H9.6665C9.48969 12.1101 9.32012 12.0399 9.1951 11.9148C9.07008 11.7898 8.99984 11.6203 8.99984 11.4434Z" fill="black"/>
</g>
<defs>
<clipPath id="clip0_80_4403">
<rect width="16" height="16" fill="white" transform="translate(0 0.110107)"/>
</clipPath>
</defs>
</svg>
