<svg width="57" height="40" viewBox="0 0 57 40" fill="none" xmlns="http://www.w3.org/2000/svg">
<g clip-path="url(#clip0_7_15106)">
<g clip-path="url(#clip1_7_15106)">
<mask id="mask0_7_15106" style="mask-type:luminance" maskUnits="userSpaceOnUse" x="4" y="0" width="49" height="40">
<path d="M52.6121 0H4.61206V40H52.6121V0Z" fill="white"/>
</mask>
<g mask="url(#mask0_7_15106)">
<mask id="mask1_7_15106" style="mask-type:luminance" maskUnits="userSpaceOnUse" x="4" y="2" width="49" height="37">
<path d="M52.6121 2H4.61206V38.2682H52.6121V2Z" fill="white"/>
</mask>
<g mask="url(#mask1_7_15106)">
<path d="M41.8756 29.3495C42.1269 28.8852 42.3252 27.7054 41.4662 27.7693C40.4709 27.8443 40.6601 30.491 40.6601 30.491C40.9927 30.13 41.4927 30.0559 41.8756 29.3495Z" fill="#14142B"/>
<path d="M32.1213 31.6973C32.1213 32.0656 32.3681 32.4247 32.7135 32.4247C33.3295 32.4247 33.4703 32.2227 33.6092 32.0994L33.6064 29.6858C33.2929 30.0678 32.1213 30.2661 32.1213 31.6973Z" fill="#14142B"/>
<path d="M34.7077 17.1415C35.3822 17.6834 35.702 17.1013 35.2496 16.4798C35.0705 16.234 34.3768 16.3044 34.1721 16.5219C34.1721 16.5219 34.535 17.0035 34.7077 17.1415Z" fill="#14142B"/>
<path d="M28.8598 14.0433C28.5308 13.4675 27.4899 12.3992 27.4899 12.3992C27.4899 12.3992 25.6666 14.2745 25.6063 14.3385C25.3166 14.6419 25.2664 14.7168 24.9958 14.8795H28.3023C29.198 14.8795 29.0198 14.323 28.8598 14.0433Z" fill="#14142B"/>
<path d="M4.61206 2V38.2682H52.612V2H4.61206ZM30.4362 14.4355C30.439 14.2911 30.4362 10.2608 30.4362 10.0926C30.4362 9.38984 30.8109 8.82228 30.9178 8.7108C31.0504 8.5728 32.4715 7.2906 32.5674 7.19372L32.9659 7.2056C32.8763 7.30064 32.3682 7.72468 32.2147 7.89652C32.0639 8.06468 31.7723 8.41196 31.7723 9.03796C31.7723 9.20612 31.7696 13.0244 31.7696 13.2108C31.7696 14.0032 31.352 14.5077 31.1765 14.7069C31.0421 14.8604 29.7544 16.0019 29.6311 16.1198L29.2527 16.1134C29.3112 16.0494 29.9802 15.4417 30.0889 15.3329C30.2434 15.1794 30.4307 14.7426 30.4362 14.4355ZM23.6514 14.4218C23.8022 14.5963 23.9548 14.8001 24.325 14.7946C24.6137 14.7901 24.9172 14.5634 24.9985 14.4821C25.0826 14.3971 27.2193 12.1635 27.2193 12.1635C27.2193 12.1635 26.2186 11.2359 25.5596 10.7945C25.2379 10.5788 24.8111 10.8512 24.7462 11.1354C24.5443 12.0237 24.7462 13.3562 24.7462 13.3562C24.7462 13.3562 24.0928 12.7046 23.9356 12.5474C23.6094 12.2202 23.6212 11.4808 24.0096 11.0915C24.0709 11.0294 24.6631 10.3595 25.4162 10.3595H26.5878C27.3746 10.3595 28.2346 11.1427 28.2346 11.1427C28.2346 11.1427 28.3607 11.0047 28.3607 10.8704C28.3607 10.4673 28.3452 9.38068 28.3452 9.38068C27.7539 8.78848 27.6735 8.17892 27.9568 7.8956C28.486 7.36644 28.6788 7.18 28.6788 7.18C28.6788 7.18 28.6724 7.8234 29.2902 8.44028C29.5022 8.65232 29.9592 9.22716 29.685 9.50132C29.4428 9.74352 29.0681 10.1274 29.0681 10.1274C29.0489 9.98844 28.698 9.65576 28.698 9.65576C28.698 9.65576 28.7016 10.6766 28.698 10.8027C28.6861 11.2633 28.5124 11.3949 28.5124 11.3949C28.5124 11.3949 29.3642 12.2403 29.3642 13.3251C29.3642 13.8515 29.366 14.3359 29.366 14.44C29.366 14.6621 29.3103 14.8348 29.1549 15.0058C29.0782 15.0908 28.2894 15.884 28.1688 15.9919C27.9404 16.1975 27.7 16.2322 27.519 16.2322H24.5836C24.1212 16.2322 23.645 15.8712 23.645 15.5102C23.645 15.4198 23.6514 14.4218 23.6514 14.4218ZM22.4962 12.6369C22.5584 12.6634 22.8992 12.8005 22.8992 14.111C22.8992 14.111 22.8764 15.6345 22.8764 15.7159C22.8764 16.3803 23.4046 17.1416 24.1668 17.1416C24.3231 17.1416 30.4298 17.1352 30.4298 17.1352C30.4353 16.967 30.6034 16.3282 30.9041 15.99C31.075 15.8 32.4185 14.5708 32.572 14.4528L32.9696 14.4483C32.9102 14.5031 32.2613 15.0853 32.116 15.2388C31.9396 15.4243 31.7714 15.8794 31.7714 16.2798V17.1342H32.6387C32.976 17.1342 33.4201 16.8272 33.517 16.6654C33.5224 16.6535 33.517 15.8173 33.517 15.8173C33.517 15.8173 33.74 16.1362 33.9803 16.3044C34.0708 16.1902 34.8595 15.2333 35.5212 15.2278C36.6242 15.2187 36.3757 16.6115 35.9242 17.0566C35.778 17.2 35.1264 17.7977 34.9244 17.9896C34.4035 18.4859 33.5115 18.2483 33.5115 16.9661C33.5115 16.9661 32.5537 17.8754 32.4102 17.9951C32.2658 18.1158 31.7723 18.6385 31.7723 18.6385V20.8913C31.7723 21.9715 31.4168 22.3344 31.1216 22.6588C31.0074 22.7849 29.791 23.8953 29.6283 24.015L29.2308 24.0242C29.2308 24.0242 29.9427 23.3771 30.0853 23.2291C30.247 23.0609 30.4362 22.7182 30.4362 22.1488C30.4362 22.0044 30.4179 18.6093 30.4179 18.6093H24.8842C22.9596 18.6093 22.5483 16.4735 22.5364 15.9014C22.5328 15.7332 22.5364 14.027 22.5364 13.7628C22.5364 13.4119 22.3116 12.8197 21.9534 12.6369H22.4962ZM33.4164 20.7076C33.3168 20.6016 32.8105 20.0788 32.8105 20.0788V18.347C32.8105 18.347 33.2702 18.7802 33.3424 18.8524C33.4749 18.9849 33.9511 19.4263 33.9511 20.1848V22.4431C33.9511 23.2565 33.7116 24.1265 33.0646 24.7745C32.4166 25.4215 31.4351 25.8812 30.3622 25.8812H29.3066L27.7302 24.504H30.3814C31.3995 24.504 32.1388 23.8057 32.3984 23.5526C33.8789 22.1086 33.8844 21.2048 33.4164 20.7076ZM27.4569 20.5568C27.4569 20.8593 26.4909 21.6617 26.4342 21.7184C26.3648 21.393 26.1208 21.033 25.4006 20.3128L26.458 19.2554C27.1663 19.9646 27.4569 20.1154 27.4569 20.5568ZM25.2964 20.5614C25.2964 20.863 24.3304 21.6663 24.2738 21.723C24.2043 21.3967 23.9603 21.0375 23.2402 20.3164L24.2966 19.2591C25.0058 19.9682 25.2964 20.119 25.2964 20.5614ZM21.8364 17.3481C21.8364 17.3481 22.2403 17.3481 22.2394 18.8222V20.2561C22.2394 21.9999 23.8104 23.0362 24.9729 23.0079C25.1648 23.0024 27.9906 23.0015 28.1295 23.0015C28.8214 23.0015 29.4154 21.9788 28.6687 21.3894C28.5097 21.2642 28.1469 20.8785 28.1469 20.8785V19.1092C28.1469 19.1092 28.5152 19.4601 28.6486 19.5936C28.8579 19.8028 29.2902 20.1136 29.2902 20.8602V21.7239C29.2902 22.6076 28.9703 22.8809 28.6696 23.2172C28.5782 23.3177 28.3297 23.5974 28.1386 23.7674C27.6168 24.2298 27.3143 24.4391 26.4507 24.4391H25.014C23.2932 24.4391 21.8766 22.8516 21.8766 21.1344V18.495C21.8766 17.668 21.2935 17.3481 21.2935 17.3481H21.8364ZM26.4735 26.1856C26.4735 26.5676 26.1573 26.8774 25.7671 26.8774C25.3768 26.8774 25.0597 26.5676 25.0606 26.1856C25.0606 25.8035 25.3768 25.4937 25.7671 25.4937C26.1573 25.4937 26.4735 25.8035 26.4735 26.1856ZM15.5643 32.1872C15.5643 32.5024 15.28 33.0855 14.4658 33.0855H12.6937H12.1161H10.8705C10.8705 33.0855 10.4263 33.0544 10.4263 31.945L10.409 27.5244C10.4263 26.4213 9.79296 25.8794 9.79296 25.8794H13.4394C15.3066 25.8794 15.4555 27.1588 15.4555 27.1588C14.6787 26.6416 13.9311 26.6562 12.9642 26.6553C12.8929 26.6553 11.8474 26.6516 11.8474 26.6516C12.0128 26.8518 12.0128 27.529 12.0128 27.529V27.8296V28.3067H12.7997C14.0134 28.3067 14.4219 29.291 14.4219 29.291C13.8544 28.9693 13.2713 29.0388 12.8024 29.0388C12.3839 29.0388 12.0138 29.0479 12.0138 29.0479V31.4743C12.0604 31.8526 12.0192 32.295 12.553 32.295C12.743 32.295 14.0719 32.2968 14.2437 32.2968C15.3175 32.2968 15.5762 31.764 15.5762 31.7631L15.5643 32.1872ZM22.8755 33.0718C22.8755 33.0718 22.4304 33.0828 22.424 31.9248C22.4231 31.6854 22.4258 29.1018 22.4258 29.1018C22.435 28.6677 22.0521 28.282 21.5951 28.282C21.0212 28.282 20.821 28.696 20.7644 28.866L20.769 31.912C20.769 32.666 21.3502 33.0754 21.3502 33.0754H19.8304C19.8304 33.0754 19.3789 33.0727 19.3789 31.9221L19.3798 29.0927C19.389 28.6586 18.9823 28.2729 18.6121 28.2729C17.9587 28.2729 17.7302 28.7335 17.711 28.8688V31.913C17.711 32.6478 18.253 33.0563 18.2923 33.0764H16.7779C16.7779 33.0764 16.321 33.0563 16.321 31.923L16.3219 28.4895C16.3219 27.561 15.79 27.3425 15.79 27.3425L16.7085 27.3407C17.6462 27.3407 17.6736 28.4146 17.6736 28.4146C17.6736 28.4146 17.9697 27.3032 19.1376 27.3032C19.7554 27.3032 20.5094 27.6441 20.7251 28.3972C20.8484 28.1194 21.1372 27.3115 22.1042 27.3115C22.8344 27.3115 23.8141 27.6304 23.8141 28.8304V31.923C23.8141 32.6752 24.3953 33.0754 24.3953 33.0754C24.3953 33.0754 23.6669 33.0718 22.8755 33.0718ZM25.5395 33.0727C25.5395 33.0727 25.0752 33.08 25.0752 31.9303V31.9248L25.0771 28.4822C25.0771 27.5738 24.5507 27.3407 24.5507 27.3407H25.4692C25.7927 27.3407 26.4671 27.3407 26.4671 28.6248L26.4653 31.9157L26.4708 31.9221C26.4708 32.6843 27.0538 33.0764 27.0538 33.0764C27.0538 33.0764 26.331 33.0727 25.5395 33.0727ZM29.7727 33.0746H28.2584C28.2584 33.0746 27.8014 33.0554 27.8014 31.9212L27.8032 28.4831C27.8032 27.5555 27.2704 27.337 27.2704 27.337L28.1889 27.3343C28.8606 27.3343 29.1001 27.5984 29.1768 28.4913C29.1768 28.4913 29.409 27.3617 30.3604 27.3617C30.9891 27.3617 31.1354 27.7739 31.1354 27.7739H31.1363V28.7472C30.746 28.2702 30.0642 28.1934 29.5653 28.5169C29.3651 28.6458 29.2335 28.8422 29.1933 29.0972L29.1915 31.913C29.1915 32.6468 29.7334 33.0563 29.7727 33.0746ZM34.0571 33.0718C34.0571 33.0718 33.7345 33.0352 33.6321 32.3973C33.4603 32.7291 33.0491 33.0864 32.3646 33.0864C31.6608 33.0864 31.0997 32.8415 30.9343 32.0007C30.5139 29.8814 33.2547 29.7507 33.6066 29.1338C33.7994 28.7975 33.7217 28.5388 33.7208 28.537C33.7254 28.3451 33.6687 27.9612 32.8974 27.9612C32.1077 27.9612 31.7961 28.7536 31.7961 28.7536V27.7538C31.7961 27.7538 32.3454 27.3334 33.2181 27.3334C34.1266 27.3334 34.981 27.9338 34.981 28.7043V31.9267C34.981 32.6834 35.5714 33.0746 35.5714 33.0746C35.5714 33.0746 34.8485 33.0718 34.0571 33.0718ZM39.0973 28.2053C39.0973 28.2053 38.7144 27.9814 38.2016 27.9814C37.9522 27.9814 38.2272 27.9804 37.8278 27.9795L37.826 31.9568C37.826 32.6852 38.4109 33.0764 38.4109 33.0764C38.4109 33.0764 37.7292 33.0727 36.8984 33.0727C36.8984 33.0727 36.436 33.0727 36.436 31.9669L36.4378 27.9768L35.4764 27.9594C35.4764 27.9594 36.3793 27.5226 36.8098 27.1698C37.4943 26.6078 37.8288 26.0284 37.8288 26.0284L37.8278 27.3407H39.1018L39.0973 28.2053ZM41.5164 32.3078C41.7467 32.4147 42.6825 32.7519 43.2884 31.7064L43.2838 32.6322C43.2838 32.6322 42.8954 33.0837 41.6608 33.0837C40.1729 33.0837 39.1539 31.9139 39.1539 30.3274C39.1539 28.7673 39.9847 27.3197 41.5529 27.3115C43.0901 27.3032 43.9218 28.5452 42.8059 29.7132C41.956 30.6024 41.2897 30.4626 40.756 31.1142C40.756 31.1151 40.8419 31.997 41.5164 32.3078ZM45.3704 33.0782C44.4976 33.0782 43.9282 32.6724 43.9282 32.6724V31.648C43.9282 31.648 44.2434 32.4558 45.0332 32.4558C45.8036 32.4558 46.1664 31.9239 46.158 31.5191C46.1524 31.2294 45.9916 30.9305 45.552 30.6865C45.2496 30.5184 44.9892 30.3602 44.77 30.1976C44.217 29.7845 43.9309 29.3458 43.9172 28.6695C43.9008 27.8982 44.726 27.2987 45.6344 27.2987C46.5072 27.2987 47.0828 27.7556 47.0828 27.7556L47.0856 28.7152C47.0856 28.7152 46.7648 27.9229 46.0128 27.9229C45.2404 27.9229 45.148 28.3104 45.1564 28.5023C45.16 28.611 45.31 28.9208 45.5916 29.0945C46.086 29.3988 46.7236 29.7269 47.0748 30.1967C47.2848 30.48 47.4228 30.809 47.43 31.1946C47.454 32.2904 46.4068 33.0782 45.3704 33.0782Z" fill="#14142B"/>
</g>
</g>
</g>
</g>
<defs>
<clipPath id="clip0_7_15106">
<rect width="57" height="40" fill="white" transform="translate(-0.00805664)"/>
</clipPath>
<clipPath id="clip1_7_15106">
<rect width="48.4" height="40" fill="white" transform="translate(4.29199)"/>
</clipPath>
</defs>
</svg>
