<svg width="40" height="41" viewBox="0 0 40 41" fill="none" xmlns="http://www.w3.org/2000/svg">
<g clip-path="url(#clip0_1_4934)">
<path d="M24.91 6.99621C24.9483 7.09621 24.9717 7.20621 24.96 7.34288C25.3317 7.51621 25.3683 7.81455 25.2817 8.12455C25.1817 8.49621 24.96 8.75788 24.3783 8.61955C24.3665 8.76054 24.4045 8.90121 24.4859 9.01698C24.5672 9.13275 24.6867 9.21625 24.8233 9.25288C24.9372 9.28133 25.0569 9.27529 25.1673 9.23552C25.2777 9.19575 25.3738 9.12406 25.4433 9.02955C25.4433 8.99121 25.455 8.94288 25.455 8.90455C25.4969 8.74898 25.5984 8.61622 25.7376 8.53509C25.8768 8.45395 26.0423 8.431 26.1983 8.47121C26.3539 8.51308 26.4867 8.61463 26.5678 8.75381C26.6489 8.89298 26.6719 9.05855 26.6317 9.21455C26.6095 9.3087 26.5623 9.3951 26.495 9.46455C26.4825 9.5814 26.5053 9.69932 26.5606 9.80303C26.6159 9.90674 26.701 9.99146 26.805 10.0462C26.965 10.1329 27.1383 10.1462 27.3 10.0829C26.8667 9.85955 26.855 9.54955 26.9783 9.21621C27.0294 9.0506 27.1336 8.90647 27.275 8.80621C27.1344 8.28661 26.8265 7.82778 26.3991 7.50062C25.9716 7.17347 25.4483 6.9962 24.91 6.99621ZM26.8917 6.82288C26.545 6.20288 25.975 5.73121 25.0717 5.27288C25.0717 5.53288 24.985 5.70621 24.8367 5.81788C25.0833 5.86788 25.2817 6.07955 25.32 6.33955C25.3817 6.33955 25.405 6.38955 25.405 6.46288C26.1367 6.58621 26.7433 6.94621 27.1767 7.44288C27.1047 7.22636 27.0092 7.01844 26.8917 6.82288ZM15.2033 6.30121C15.1783 6.41288 15.1667 6.52455 15.1533 6.63621C15.29 6.68621 15.4017 6.78621 15.4767 6.97121C15.885 6.94621 16.0583 7.18288 16.1317 7.50455C16.2317 7.87621 16.1567 8.21121 15.575 8.37121C15.6321 8.50016 15.7332 8.60464 15.8602 8.66599C15.9871 8.72735 16.1318 8.7416 16.2683 8.70621C16.394 8.67623 16.5062 8.60524 16.5871 8.50444C16.668 8.40364 16.713 8.27877 16.715 8.14955C16.6656 8.06914 16.6356 7.97835 16.6274 7.88435C16.6191 7.79035 16.6329 7.69572 16.6675 7.60794C16.7021 7.52017 16.7567 7.44165 16.8269 7.37861C16.8971 7.31556 16.981 7.2697 17.072 7.24467C17.163 7.21964 17.2585 7.21611 17.3511 7.23437C17.4437 7.25263 17.5307 7.29218 17.6054 7.34988C17.6801 7.40759 17.7403 7.48187 17.7813 7.56685C17.8223 7.65184 17.843 7.7452 17.8417 7.83955C17.8403 7.89812 17.8319 7.95631 17.8167 8.01288C17.8526 8.13545 17.9275 8.24295 18.0301 8.31906C18.1327 8.39516 18.2573 8.43571 18.385 8.43455C18.5261 8.43718 18.6633 8.38814 18.7707 8.29666C18.8781 8.20518 18.9484 8.07758 18.9683 7.93788C18.3733 7.93788 18.2117 7.61621 18.2117 7.23121C18.2117 6.90955 18.3233 6.63621 18.72 6.54955C18.7817 6.21621 18.8817 6.07955 19.1417 6.02955C19.0493 5.98694 18.971 5.9188 18.9161 5.83316C18.8611 5.74752 18.8318 5.64796 18.8317 5.54621C18.51 5.35955 18.1883 5.32288 17.8283 5.32288C16.8663 5.3346 15.9383 5.68046 15.2033 6.30121ZM15.4883 5.38455C16.2317 4.97621 17.0117 4.75121 17.8533 4.75121C18.2367 4.75121 18.5967 4.80121 18.9433 4.88955V4.76455C18.8835 4.67744 18.8531 4.57348 18.8567 4.46788C18.8567 4.35621 18.8933 4.25621 18.9433 4.16955V3.68621C18.8835 3.59911 18.8531 3.49515 18.8567 3.38955C17.2967 3.23955 16.07 4.11955 15.4883 5.38455ZM12.665 11.0245C12.4917 11.0995 12.3067 11.0245 12.22 10.8512C12.17 10.7512 12.1833 10.6529 12.22 10.5545C12.0525 10.6088 11.8742 10.6201 11.7012 10.5875C11.5282 10.5549 11.3662 10.4794 11.23 10.3679C10.92 10.5779 10.5967 10.4795 10.35 10.2929C10.09 10.0945 9.87999 9.62455 10.19 9.36455C9.95332 9.05455 10.0167 8.64455 10.3 8.45955C10.2454 8.3652 10.2156 8.25854 10.2133 8.14955C10.2133 7.85121 10.425 7.61621 10.6967 7.55455C10.5483 7.46788 10.4617 7.29288 10.4617 7.09455C10.4631 6.94441 10.5192 6.79995 10.6196 6.68826C10.7199 6.57657 10.8575 6.50532 11.0067 6.48788C10.9466 6.39616 10.9124 6.28991 10.9078 6.18037C10.9031 6.07082 10.9281 5.96205 10.9802 5.86557C11.0323 5.76909 11.1095 5.68847 11.2036 5.63226C11.2978 5.57604 11.4053 5.54631 11.515 5.54621C11.5691 5.54801 11.6229 5.55641 11.675 5.57121C11.6392 5.49289 11.622 5.4073 11.625 5.32121C11.6252 5.21764 11.6518 5.11582 11.7023 5.02541C11.7528 4.93499 11.8256 4.85898 11.9137 4.80456C12.0019 4.75015 12.1024 4.71914 12.2059 4.71447C12.3094 4.7098 12.4123 4.73163 12.505 4.77788C12.4917 4.34455 12.765 4.07121 13.0983 4.07121C13.2233 4.07121 13.3467 4.10788 13.445 4.18288C13.4742 4.04657 13.5492 3.92434 13.6574 3.83644C13.7656 3.74854 13.9006 3.70024 14.04 3.69955C14.1415 3.70005 14.2413 3.72631 14.3299 3.77586C14.4185 3.82541 14.4931 3.89664 14.5467 3.98288C14.6032 3.92063 14.6721 3.87096 14.7491 3.83708C14.826 3.8032 14.9092 3.78587 14.9933 3.78621C15.0433 3.78621 15.08 3.78621 15.13 3.79788C15.1031 3.72655 15.0901 3.65075 15.0917 3.57455C15.0917 3.24121 15.365 2.96788 15.6983 2.96788C15.8233 2.96788 15.9217 3.00455 16.02 3.05455C16.0083 2.62121 16.28 2.34788 16.615 2.34788C16.7452 2.34884 16.8716 2.39213 16.975 2.47121C17.0045 2.33633 17.0797 2.21575 17.1877 2.12983C17.2958 2.0439 17.4303 1.99789 17.5683 1.99955C17.7417 1.99955 17.89 2.06288 18.0017 2.17455C18.0497 2.07049 18.1266 1.98239 18.2232 1.92065C18.3198 1.85892 18.432 1.82615 18.5467 1.82621C18.62 1.82621 18.6833 1.83955 18.745 1.86455C18.8931 1.72725 19.0647 1.61772 19.2517 1.54121V1.08288H18.795V0.611214H19.2517V0.202881H19.7467V0.611214H20.205V1.08288H19.7483V1.54121C20.0067 1.64121 20.1433 1.72788 20.255 1.85121C20.318 1.826 20.3854 1.81353 20.4533 1.81455C20.7017 1.81455 20.8983 1.96455 20.9983 2.16121C21.0552 2.10469 21.1229 2.0602 21.1973 2.03042C21.2718 2.00064 21.3515 1.98617 21.4317 1.98788C21.715 1.98788 21.965 2.18788 22.025 2.45955C22.1143 2.39056 22.2213 2.34817 22.3336 2.33725C22.446 2.32632 22.5591 2.3473 22.66 2.39777C22.761 2.44825 22.8457 2.52617 22.9043 2.62259C22.963 2.71902 22.9932 2.83003 22.9917 2.94288C23.0783 2.97955 23.19 2.94288 23.3 2.94288C23.635 2.94288 23.9067 3.21455 23.9067 3.54955C23.9067 3.62455 23.895 3.69955 23.87 3.77288C23.92 3.76121 23.9567 3.76121 24.0067 3.76121C24.18 3.76121 24.34 3.83455 24.4517 3.95955C24.5054 3.87298 24.5802 3.80144 24.6691 3.7516C24.758 3.70176 24.8581 3.67526 24.96 3.67455C25.2433 3.67455 25.4933 3.88455 25.5533 4.15788C25.6538 4.08429 25.7754 4.04513 25.9 4.04621C26.235 4.04621 26.5083 4.31788 26.5083 4.65288C26.5817 4.70288 26.6817 4.67788 26.78 4.67788C26.8814 4.67778 26.9811 4.70302 27.0703 4.75129C27.1594 4.79956 27.2351 4.86935 27.2904 4.95429C27.3457 5.03924 27.3789 5.13667 27.387 5.23771C27.3951 5.33876 27.3778 5.44022 27.3367 5.53288C27.3892 5.5175 27.4436 5.50909 27.4983 5.50788C27.6081 5.50808 27.7158 5.53798 27.8099 5.5944C27.9041 5.65082 27.9812 5.73167 28.0331 5.82837C28.0851 5.92507 28.1099 6.03402 28.1049 6.14367C28.1 6.25332 28.0654 6.35959 28.005 6.45121C28.1557 6.46468 28.2957 6.53475 28.3969 6.64732C28.498 6.75988 28.5527 6.90658 28.55 7.05788C28.5516 7.15125 28.5312 7.24369 28.4904 7.32768C28.4495 7.41167 28.3894 7.48483 28.315 7.54121C28.5867 7.60288 28.7983 7.83955 28.7983 8.13621C28.8004 8.2458 28.7703 8.35359 28.7117 8.44621C29.0083 8.63288 29.07 9.02955 28.8233 9.35121C29.1317 9.61121 28.91 10.0829 28.6617 10.2812C28.415 10.4679 28.0917 10.5662 27.7833 10.3562C27.6437 10.4618 27.4814 10.5334 27.3093 10.5655C27.1372 10.5976 26.96 10.5893 26.7917 10.5412C26.8132 10.588 26.8243 10.6389 26.8243 10.6904C26.8243 10.7419 26.8132 10.7928 26.7917 10.8395C26.7726 10.8804 26.7455 10.917 26.7121 10.9472C26.6787 10.9775 26.6395 11.0007 26.597 11.0156C26.5545 11.0306 26.5094 11.0368 26.4644 11.034C26.4194 11.0313 26.3754 11.0195 26.335 10.9995C24.2026 9.98926 21.8712 9.46878 19.5117 9.47621C17.1442 9.49128 14.8081 10.0185 12.665 11.0245ZM11.7367 8.80621C11.8643 8.90911 11.9593 9.04694 12.01 9.20288C12.1333 9.53621 12.12 9.84788 11.6867 10.0695C11.8483 10.1329 12.0217 10.1195 12.1833 10.0329C12.2855 9.97577 12.369 9.8903 12.4237 9.7868C12.4784 9.68329 12.502 9.56616 12.4917 9.44955C12.4304 9.3773 12.3845 9.29339 12.3567 9.20288C12.3164 9.04688 12.3394 8.88132 12.4205 8.74214C12.5017 8.60296 12.6344 8.50142 12.79 8.45955C12.9458 8.41983 13.1109 8.44303 13.2497 8.52412C13.3885 8.60521 13.4898 8.73768 13.5317 8.89288C13.5427 8.93302 13.5472 8.97465 13.545 9.01621C13.6161 9.11204 13.7142 9.18448 13.8267 9.22426C13.9393 9.26404 14.0611 9.26936 14.1767 9.23955C14.3133 9.20291 14.4328 9.11942 14.5141 9.00365C14.5954 8.88788 14.6335 8.7472 14.6217 8.60621C14.0383 8.75621 13.8167 8.48288 13.7183 8.11121C13.6317 7.80121 13.6683 7.50455 14.04 7.33121C14.0254 7.21155 14.0469 7.09025 14.1017 6.98288C12.8517 7.02121 12.0217 7.83955 11.7367 8.80621ZM13.68 6.33955C13.6931 6.21195 13.7474 6.09208 13.8345 5.99799C13.9217 5.9039 14.0371 5.84069 14.1633 5.81788C14.0909 5.75963 14.0323 5.68609 13.9917 5.60253C13.9511 5.51897 13.9294 5.42745 13.9283 5.33455C13 5.73121 12.43 6.21455 12.0833 6.85955C12.0042 7.03758 11.9342 7.21948 11.8733 7.40455C12.3067 6.92121 12.9 6.56288 13.6317 6.43788L13.6817 6.33788L13.68 6.33955ZM20.13 5.55788C20.1335 5.6617 20.1045 5.76403 20.0472 5.85065C19.9898 5.93727 19.9069 6.00387 19.81 6.04121C20.07 6.09121 20.1683 6.22788 20.23 6.56288C20.6267 6.63621 20.7383 6.90955 20.7383 7.24455C20.7383 7.62788 20.5883 7.93788 19.9833 7.95121C20.0333 8.23455 20.2667 8.44621 20.565 8.44621C20.6927 8.44738 20.8173 8.40683 20.9199 8.33072C21.0225 8.25462 21.0974 8.14712 21.1333 8.02455C21.1068 7.9405 21.0988 7.85168 21.11 7.76425C21.1211 7.67682 21.1512 7.59285 21.198 7.51817C21.2448 7.44349 21.3073 7.37988 21.3811 7.33174C21.455 7.28359 21.5384 7.25207 21.6256 7.23935C21.7128 7.22662 21.8018 7.23301 21.8863 7.25805C21.9708 7.2831 22.0488 7.32622 22.115 7.38441C22.1812 7.4426 22.234 7.51449 22.2697 7.59509C22.3054 7.67569 22.3231 7.76308 22.3217 7.85121C22.3242 7.96063 22.2947 8.06841 22.2367 8.16121C22.2424 8.29499 22.293 8.42294 22.3803 8.52449C22.4676 8.62603 22.5865 8.69526 22.7179 8.72104C22.8493 8.74681 22.9855 8.72765 23.1047 8.66661C23.2239 8.60558 23.3191 8.50623 23.375 8.38455C22.7917 8.23455 22.7317 7.88788 22.8183 7.51788C22.905 7.20621 23.065 6.95955 23.4733 6.98455C23.5362 6.83687 23.6513 6.71759 23.7967 6.64955C23.786 6.53706 23.7694 6.42523 23.7467 6.31455C23.0071 5.6768 22.0615 5.32865 21.085 5.33455C20.7465 5.3325 20.4093 5.37452 20.0817 5.45955L20.1317 5.55955L20.13 5.55788ZM23.5117 5.39621C22.9417 4.11955 21.7283 3.22788 20.1317 3.31288C20.1317 3.48788 20.1067 3.58788 20.045 3.67455V4.15788C20.1049 4.24493 20.1353 4.34893 20.1317 4.45455C20.1296 4.5599 20.0997 4.66283 20.045 4.75288V4.87621C20.4018 4.79031 20.768 4.74888 21.135 4.75288C21.9693 4.75969 22.7878 4.98125 23.5117 5.39621ZM13.94 9.73621C13.7172 9.72035 13.5032 9.64304 13.3217 9.51288C13.2611 9.56328 13.1889 9.59767 13.1117 9.61288C12.9867 9.84621 12.8883 10.0579 12.7283 10.2195C13.1252 10.0414 13.5295 9.88016 13.94 9.73621ZM23.8833 8.51955C23.8157 8.68622 23.7078 8.83356 23.5694 8.94843C23.431 9.0633 23.2663 9.14213 23.09 9.17788C23.4867 9.26455 23.8833 9.36455 24.2667 9.47621C24.1249 9.36439 24.0149 9.21738 23.9477 9.04983C23.8804 8.88227 23.8582 8.70001 23.8833 8.52121V8.51955ZM22.2617 9.01621C22.0396 8.87634 21.8697 8.66724 21.7783 8.42121C21.6783 8.42121 21.6283 8.40955 21.5667 8.39621C21.4164 8.61301 21.1992 8.77459 20.9483 8.85621C21.3817 8.89288 21.8267 8.94288 22.26 9.01621H22.2617ZM18.0517 8.85621C17.8025 8.77044 17.586 8.60978 17.4317 8.39621C17.37 8.40955 17.3217 8.42121 17.2583 8.42121C17.1531 8.66598 16.9765 8.87333 16.7517 9.01621C17.1717 8.94288 17.6183 8.89288 18.0517 8.85621ZM15.13 8.51955C15.1474 8.69673 15.1228 8.87553 15.0583 9.04145C14.9937 9.20737 14.8909 9.35575 14.7583 9.47455C15.1417 9.36288 15.5383 9.26288 15.9333 9.17621C15.7546 9.14418 15.587 9.06705 15.4464 8.95214C15.3059 8.83722 15.1969 8.68833 15.13 8.51955ZM18.8933 8.80288C19.0917 8.79121 19.3017 8.79121 19.5117 8.79121C19.7233 8.79121 19.92 8.79121 20.1317 8.80455C19.9708 8.72403 19.831 8.60706 19.7234 8.46296C19.6157 8.31886 19.5432 8.15162 19.5117 7.97455C19.4803 8.15146 19.408 8.3186 19.3007 8.46268C19.1933 8.60677 19.0538 8.72216 18.8933 8.80288ZM25.0717 9.73455C25.48 9.88288 25.8883 10.0445 26.285 10.2179C26.1305 10.0523 26.0269 9.84573 25.9867 9.62288C25.8821 9.60304 25.7817 9.56526 25.69 9.51121C25.5113 9.64657 25.2956 9.72446 25.0717 9.73455ZM27.56 9.28788C27.4854 9.42292 27.4671 9.58189 27.5089 9.73037C27.5507 9.87885 27.6493 10.0049 27.7833 10.0812C27.918 10.1561 28.0769 10.1747 28.2252 10.1328C28.3736 10.091 28.4993 9.99214 28.575 9.85788C28.6473 9.72116 28.6631 9.56158 28.6192 9.41331C28.5753 9.26503 28.4751 9.13984 28.34 9.06455C28.2746 9.0261 28.202 9.00135 28.1268 8.9918C28.0515 8.98225 27.9751 8.98809 27.9021 9.00898C27.8292 9.02986 27.7612 9.06536 27.7024 9.1133C27.6436 9.16124 27.5951 9.22064 27.56 9.28788ZM23.5367 7.55288C23.4997 7.70223 23.523 7.86015 23.6016 7.99242C23.6802 8.12469 23.8078 8.22066 23.9567 8.25955C24.1063 8.29694 24.2646 8.27357 24.397 8.19456C24.5294 8.11554 24.6252 7.9873 24.6633 7.83788C24.7003 7.6883 24.6767 7.53018 24.5977 7.39787C24.5188 7.26556 24.3908 7.16974 24.2417 7.13121C24.1676 7.11059 24.0902 7.10523 24.014 7.11547C23.9379 7.12571 23.8646 7.15132 23.7987 7.19076C23.7327 7.23021 23.6755 7.28265 23.6305 7.3449C23.5854 7.40715 23.5535 7.47791 23.5367 7.55288ZM11.5267 9.22788C11.452 9.09219 11.3269 8.99132 11.1785 8.94704C11.03 8.90277 10.8702 8.91863 10.7333 8.99121C10.5979 9.06616 10.4974 9.19147 10.4538 9.33997C10.4101 9.48847 10.4267 9.64821 10.5 9.78455C10.5744 9.92012 10.6991 10.021 10.8473 10.0652C10.9954 10.1095 11.1551 10.0937 11.2917 10.0212C11.3609 9.98632 11.4222 9.93761 11.4718 9.87807C11.5214 9.81854 11.5583 9.74946 11.5802 9.6751C11.6021 9.60074 11.6085 9.52269 11.599 9.44577C11.5895 9.36884 11.566 9.29469 11.5267 9.22788ZM15.4633 7.55288C15.4252 7.40383 15.3297 7.27588 15.1976 7.19691C15.0656 7.11793 14.9077 7.09432 14.7583 7.13121C14.6091 7.16974 14.4812 7.26556 14.4022 7.39787C14.3233 7.53018 14.2997 7.6883 14.3367 7.83788C14.3748 7.9873 14.4705 8.11554 14.603 8.19456C14.7354 8.27357 14.8937 8.29694 15.0433 8.25955C15.118 8.2419 15.1883 8.2094 15.2501 8.16401C15.312 8.11861 15.364 8.06123 15.4032 7.99529C15.4424 7.92935 15.4679 7.8562 15.4782 7.7802C15.4886 7.70419 15.4835 7.62688 15.4633 7.55288ZM20.0817 7.10621C20.0819 6.95195 20.0208 6.80391 19.9119 6.69467C19.803 6.58543 19.6551 6.52393 19.5008 6.52371C19.3466 6.52349 19.1985 6.58456 19.0893 6.69349C18.98 6.80242 18.9185 6.95028 18.9183 7.10455C18.9183 7.25881 18.9796 7.40676 19.0887 7.51585C19.1978 7.62493 19.3457 7.68621 19.5 7.68621C19.6543 7.68621 19.8022 7.62493 19.9113 7.51585C20.0204 7.40676 20.0817 7.25881 20.0817 7.10455V7.10621ZM26.1983 11.7429L26.31 12.2012L25.8517 12.4612C25.925 12.5112 25.9517 12.5979 25.9133 12.6845C25.9045 12.705 25.8916 12.7235 25.8756 12.7389C25.8595 12.7544 25.8405 12.7665 25.8198 12.7745C25.799 12.7826 25.7768 12.7865 25.7545 12.7859C25.7323 12.7853 25.7103 12.7803 25.69 12.7712C23.7548 11.8573 21.6401 11.387 19.5 11.3945C17.2833 11.3945 15.1917 11.8912 13.31 12.7712C13.2233 12.8079 13.1367 12.7712 13.0867 12.6845C13.05 12.6095 13.0867 12.5112 13.1483 12.4612L12.69 12.2029L12.8017 11.7445C12.7672 11.7516 12.7314 11.7469 12.7 11.7312C12.6685 11.7155 12.6433 11.6897 12.6283 11.6579C12.6188 11.6408 12.6129 11.622 12.6109 11.6025C12.6088 11.5831 12.6107 11.5634 12.6165 11.5447C12.6223 11.526 12.6317 11.5087 12.6444 11.4938C12.657 11.4789 12.6725 11.4667 12.69 11.4579C14.8199 10.4554 17.146 9.93907 19.5 9.94621C21.9383 9.94621 24.23 10.4912 26.2967 11.4595C26.3717 11.4962 26.3967 11.5829 26.3583 11.6579C26.3448 11.6879 26.3219 11.7126 26.293 11.7282C26.2641 11.7439 26.2308 11.7496 26.1983 11.7445V11.7429ZM19.4983 13.5145C12.6783 13.5145 7.10666 19.0812 7.10666 25.9245C7.10666 32.7545 12.6783 38.3329 19.5 38.3329C26.3217 38.3329 31.8933 32.7545 31.8933 25.9229C31.8933 19.0812 26.32 13.5145 19.4983 13.5145ZM19.4983 11.8545C27.2383 11.8545 33.54 18.1762 33.54 25.9245C33.54 33.6579 27.2383 39.9812 19.5 39.9812C11.7617 39.9812 5.45999 33.6595 5.45999 25.9245C5.45999 18.1745 11.76 11.8545 19.4983 11.8545ZM31.2617 25.8495C31.2662 28.6058 30.2969 31.275 28.525 33.3862L27.175 32.0362C28.625 30.2745 29.565 28.5262 29.565 25.7362C29.565 22.7995 28.0317 19.4529 25.565 17.7545L23.9933 19.3662C24.8367 19.9995 25.505 20.6545 26.0617 21.5479L24.725 22.7012C24.2417 21.8329 23.5983 21.2012 22.78 20.6429L19.5 24.1162L16.095 20.6079C14.3617 21.8095 13.3583 23.5829 13.31 25.7145C13.26 28.5529 15.08 30.5862 17.6683 31.4545V25.6395H21.7783V26.9295H19.3133V28.3929H21.7417V29.8545H19.3133V31.7262C21.085 31.8129 23.0167 30.7345 24.155 29.4595L25.43 30.7479C23.9083 32.5445 21.655 33.4879 19.3267 33.4995V35.2962H17.68V33.3029C14.1267 32.4095 11.5633 29.2495 11.6133 25.5429C11.65 23.0145 12.9867 20.8812 14.9567 19.4062L13.3583 17.7445C10.8083 19.8412 9.43332 22.4195 9.32332 25.7279C9.23666 28.7162 10.7967 31.0962 11.75 32.0762L10.56 33.2912C8.80332 31.2445 7.76332 28.7279 7.76332 25.8412C7.76332 21.4895 10.1633 17.6462 13.7183 15.6129L16.4917 18.5129C17.4618 18.1332 18.4949 17.9404 19.5367 17.9445C20.5374 17.9528 21.5279 18.1461 22.4583 18.5145L22.595 18.3779L25.295 15.5879C28.8467 17.6345 31.2617 21.4645 31.2617 25.8529V25.8495ZM21.1717 19.8995C20.6017 19.7629 20.0567 19.6379 19.4633 19.6262C18.88 19.6012 18.2983 19.7262 17.7417 19.8495L19.3517 21.5112L19.525 21.6345L21.1717 19.8995ZM21.135 23.0729L27.9433 30.1262C27.56 30.7595 27.09 31.3912 26.52 32.0729L28.2283 33.7712C27.0911 35.0112 25.713 36.0065 24.1783 36.6962L21.32 33.7579C23.2017 33.3245 24.8233 32.2462 26.075 30.7079L24.13 28.7379C23.09 29.9779 21.4933 31.1295 19.81 31.2412V30.3245H22.2367V27.8945H19.81V27.3995H22.2733V25.1429H17.1967V29.5312L13.805 26.0595C13.805 25.9479 13.7917 25.8245 13.805 25.7129C13.8146 24.8429 14.0226 23.9866 14.4131 23.2091C14.8036 22.4316 15.3662 21.7535 16.0583 21.2262L19.24 24.5229L19.5117 24.7962L21.135 23.0729ZM11.39 23.6062L10.375 22.5645C10.945 20.9895 11.91 19.6012 13.2967 18.3979L14.2133 19.3412C12.8883 20.4329 11.86 21.9195 11.39 23.6062Z" fill="black"/>
</g>
<defs>
<clipPath id="clip0_1_4934">
<rect width="40" height="40" fill="white" transform="translate(0 0.202881)"/>
</clipPath>
</defs>
</svg>
