<svg width="36" height="41" viewBox="0 0 36 41" fill="none" xmlns="http://www.w3.org/2000/svg">
<g clip-path="url(#clip0_1_4940)">
<g clip-path="url(#clip1_1_4940)">
<g clip-path="url(#clip2_1_4940)">
<path d="M35.72 0.210327H0V40.1954H35.72V0.210327Z" fill="white"/>
<path d="M17.8573 40.1901C27.7197 40.1901 35.7147 32.213 35.7147 22.3728C35.7147 12.5325 27.7197 4.55542 17.8573 4.55542C7.995 4.55542 0 12.5325 0 22.3728C0 32.213 7.995 40.1901 17.8573 40.1901Z" fill="#3D3E3F"/>
<path d="M19.3861 9.54418C19.2755 9.2243 18.9876 9.08302 18.8916 9.06436C18.7957 9.0457 18.657 9.02571 18.4811 9.11501C18.3172 9.19765 18.2759 9.44689 18.3492 9.60949C18.4038 9.72945 18.7797 9.99068 18.8356 10.028C18.8916 10.0653 18.8796 10.1133 18.8556 10.1053C18.8117 10.0906 18.7743 10.0813 18.693 10.0733C18.6157 10.0653 17.9586 10.0573 17.8893 10.056H17.884C17.8147 10.056 17.1563 10.0653 17.0803 10.0733C16.999 10.0813 16.9617 10.0906 16.9177 10.1053C16.8937 10.1133 16.8817 10.0653 16.9377 10.028C16.9937 9.99068 17.3709 9.72945 17.4242 9.60949C17.4975 9.44689 17.4562 9.19898 17.2922 9.11501C17.115 9.02571 16.9763 9.0457 16.8817 9.06436C16.7871 9.08302 16.4992 9.2243 16.3872 9.54418C16.2779 9.8574 16.2753 9.98402 16.2926 10.2346C16.3099 10.4852 16.4019 11.1009 16.5192 11.4221C16.6365 11.7434 17.087 12.663 17.087 12.663L17.1976 12.8829C17.1976 12.8829 17.3802 13.2735 17.4108 13.5094C17.4282 13.6427 17.4322 13.696 17.4282 13.7666C17.4242 13.8279 17.3682 13.8692 17.3082 13.8839C17.2016 13.9119 17.075 13.9425 16.9324 13.9705C16.8804 13.9812 16.9603 14.1531 17.2629 14.2038C17.5455 14.2504 17.844 14.2478 17.8827 14.2478C17.9213 14.2478 18.2199 14.2504 18.5024 14.2038C18.805 14.1531 18.885 13.9812 18.833 13.9705C18.6904 13.9425 18.5637 13.9106 18.4571 13.8839C18.3971 13.8679 18.3412 13.8279 18.3372 13.7666C18.3332 13.696 18.3372 13.6413 18.3545 13.5094C18.3745 13.3574 18.4558 13.1442 18.5118 13.0096L18.6864 12.6644C18.6864 12.6644 19.1369 11.746 19.2542 11.4235C19.3714 11.1023 19.4647 10.4865 19.4807 10.2359C19.4981 9.98535 19.4941 9.8574 19.3861 9.54552V9.54418ZM16.919 10.5172C16.8697 10.5811 16.7124 10.6438 16.6605 10.6638C16.6498 10.6678 16.6445 10.6771 16.6458 10.6878C16.6658 10.8157 16.7911 11.6141 16.8097 11.6994C16.8297 11.7927 16.8191 11.7927 16.8124 11.794C16.8044 11.794 16.7937 11.7647 16.7937 11.7647C16.7937 11.7647 16.7031 11.5208 16.6725 11.4341C16.6498 11.3688 16.5818 11.1263 16.5498 11.0143C16.5392 10.9756 16.5298 10.9357 16.5232 10.8957C16.5018 10.7677 16.4552 10.4678 16.4392 10.2666C16.4179 10.0053 16.4712 9.77343 16.4712 9.77343C16.5125 9.44422 16.8337 9.23896 16.8337 9.23896C17.1256 9.0617 17.2762 9.30694 17.2762 9.30694C17.3682 9.46155 17.2576 9.56684 17.1896 9.63615C17.1216 9.70546 16.8617 9.82941 16.7284 9.94403C16.6805 9.98535 16.6924 10.0613 16.6924 10.076C16.6964 10.152 16.8071 10.2253 16.8097 10.2266C16.891 10.2759 16.975 10.2986 16.995 10.3585C17.0123 10.4079 16.919 10.5172 16.919 10.5172ZM19.3355 10.2692C19.3195 10.4705 19.2715 10.7704 19.2515 10.8983C19.2448 10.9383 19.2368 10.977 19.2248 11.017C19.1942 11.1289 19.1249 11.3702 19.1022 11.4368C19.0729 11.5234 18.9809 11.7674 18.9809 11.7674C18.9809 11.7674 18.9703 11.798 18.9623 11.7967C18.9543 11.7967 18.9449 11.7967 18.9649 11.702C18.9836 11.6167 19.1089 10.8184 19.1289 10.6904C19.1302 10.6798 19.1249 10.6704 19.1142 10.6664C19.0622 10.6464 18.905 10.5825 18.8556 10.5198C18.8556 10.5198 18.7623 10.4119 18.7797 10.3612C18.7997 10.3012 18.8836 10.2786 18.9649 10.2293C18.9676 10.2293 19.0782 10.156 19.0822 10.0787C19.0822 10.0627 19.0942 9.98802 19.0462 9.9467C18.913 9.83208 18.6544 9.70812 18.5851 9.63881C18.5171 9.56951 18.4065 9.46421 18.4984 9.3096C18.4984 9.3096 18.649 9.06436 18.9409 9.24163C18.9409 9.24163 19.2622 9.44689 19.3035 9.7761C19.3035 9.7761 19.3568 10.008 19.3355 10.2692Z" fill="#555659"/>
<path d="M7.2413 16.0084C7.13068 15.6885 6.84278 15.5473 6.74682 15.5286C6.65086 15.5099 6.51224 15.4899 6.33631 15.5792C6.17237 15.6619 6.13105 15.9111 6.20436 16.0737C6.259 16.1937 6.63486 16.4549 6.69084 16.4922C6.74682 16.5296 6.73482 16.5775 6.71083 16.5695C6.66685 16.5549 6.62953 16.5455 6.54823 16.5376C6.47092 16.5296 5.81383 16.5216 5.74453 16.5202H5.7392C5.66989 16.5202 5.01147 16.5296 4.9355 16.5376C4.85419 16.5455 4.81687 16.5549 4.77289 16.5695C4.7489 16.5775 4.7369 16.5296 4.79288 16.4922C4.84886 16.4549 5.22605 16.1937 5.27937 16.0737C5.35267 15.9111 5.31136 15.6632 5.14742 15.5792C4.97015 15.4899 4.83153 15.5099 4.7369 15.5286C4.64227 15.5473 4.35438 15.6885 4.24242 16.0084C4.13313 16.3216 4.13046 16.4483 4.14779 16.6988C4.16512 16.9494 4.25708 17.5652 4.37437 17.8864C4.49166 18.2076 4.94216 19.1273 4.94216 19.1273L5.05279 19.3472C5.05279 19.3472 5.23538 19.7377 5.26604 19.9736C5.28337 20.1069 5.28736 20.1602 5.28337 20.2308C5.27937 20.2922 5.22339 20.3335 5.16341 20.3481C5.05678 20.3761 4.93016 20.4068 4.78755 20.4348C4.73557 20.4454 4.81554 20.6174 5.11809 20.668C5.40066 20.7147 5.69921 20.712 5.73786 20.712C5.77651 20.712 6.07507 20.7147 6.35763 20.668C6.66019 20.6174 6.74015 20.4454 6.68817 20.4348C6.54556 20.4068 6.41894 20.3748 6.31231 20.3481C6.25234 20.3321 6.19636 20.2922 6.19236 20.2308C6.18836 20.1602 6.19236 20.1056 6.20969 19.9736C6.22968 19.8217 6.31098 19.6084 6.36696 19.4738L6.54156 19.1286C6.54156 19.1286 6.99206 18.2103 7.10935 17.8877C7.22664 17.5665 7.31994 16.9507 7.33593 16.7002C7.35326 16.4496 7.34926 16.3216 7.2413 16.0097V16.0084ZM4.77422 16.9827C4.72491 17.0467 4.56763 17.1093 4.51565 17.1293C4.50499 17.1333 4.49966 17.1427 4.50099 17.1533C4.52098 17.2813 4.64627 18.0796 4.66493 18.1649C4.68492 18.2582 4.67426 18.2582 4.6676 18.2596C4.6596 18.2596 4.64894 18.2303 4.64894 18.2303C4.64894 18.2303 4.5583 17.9863 4.52765 17.8997C4.50499 17.8344 4.43701 17.5918 4.40503 17.4799C4.39436 17.4412 4.38503 17.4012 4.37837 17.3612C4.35704 17.2333 4.3104 16.9334 4.2944 16.7321C4.27308 16.4709 4.32639 16.239 4.32639 16.239C4.36771 15.9098 4.68892 15.7045 4.68892 15.7045C4.98081 15.5273 5.13142 15.7725 5.13142 15.7725C5.22339 15.9271 5.11276 16.0324 5.04479 16.1017C4.97681 16.171 4.71691 16.295 4.58363 16.4096C4.53564 16.4509 4.54764 16.5269 4.54764 16.5416C4.55164 16.6175 4.66226 16.6908 4.66493 16.6922C4.74623 16.7415 4.8302 16.7641 4.85019 16.8241C4.86752 16.8734 4.77422 16.9827 4.77422 16.9827ZM7.19065 16.7335C7.17466 16.9347 7.12668 17.2346 7.10669 17.3626C7.10002 17.4026 7.09202 17.4412 7.08003 17.4812C7.04937 17.5932 6.98007 17.8344 6.95741 17.901C6.92809 17.9877 6.83612 18.2316 6.83612 18.2316C6.83612 18.2316 6.82546 18.2622 6.81746 18.2609C6.80946 18.2609 6.80013 18.2609 6.82013 18.1663C6.83879 18.081 6.96407 17.2826 6.98406 17.1547C6.9854 17.144 6.98007 17.1347 6.9694 17.1307C6.91742 17.1107 6.76015 17.0467 6.71083 16.9841C6.71083 16.9841 6.61753 16.8761 6.63486 16.8254C6.65485 16.7655 6.73882 16.7428 6.82013 16.6935C6.82279 16.6935 6.93342 16.6202 6.93741 16.5429C6.93741 16.5269 6.94941 16.4522 6.90143 16.4109C6.76814 16.2963 6.50957 16.1724 6.44027 16.103C6.37229 16.0337 6.26167 15.9284 6.35363 15.7738C6.35363 15.7738 6.50424 15.5286 6.79613 15.7059C6.79613 15.7059 7.11735 15.9111 7.15867 16.2403C7.15867 16.2403 7.21198 16.4722 7.19065 16.7335Z" fill="#555659"/>
<path d="M4.89551 21.9542C4.78488 21.6343 4.49699 21.4931 4.40103 21.4744C4.30506 21.4557 4.16645 21.4357 3.99051 21.525C3.82657 21.6077 3.78525 21.8569 3.85856 22.0195C3.91321 22.1395 4.28907 22.4007 4.34505 22.438C4.40102 22.4754 4.38903 22.5233 4.36504 22.5153C4.32105 22.5007 4.28374 22.4913 4.20243 22.4834C4.12513 22.4754 3.46804 22.4674 3.39873 22.466H3.3934C3.32409 22.466 2.66567 22.4754 2.5897 22.4834C2.5084 22.4913 2.47108 22.5007 2.42709 22.5153C2.4031 22.5233 2.39111 22.4754 2.44709 22.438C2.50307 22.4007 2.88026 22.1395 2.93357 22.0195C3.00688 21.8569 2.96556 21.609 2.80162 21.525C2.62435 21.4357 2.48574 21.4557 2.39111 21.4744C2.29648 21.4931 2.00858 21.6343 1.89663 21.9542C1.78733 22.2674 1.78467 22.3941 1.80199 22.6446C1.81932 22.8952 1.91129 23.511 2.02858 23.8322C2.14587 24.1534 2.59637 25.0731 2.59637 25.0731L2.70699 25.293C2.70699 25.293 2.88959 25.6835 2.92024 25.9194C2.93757 26.0527 2.94157 26.106 2.93757 26.1766C2.93357 26.238 2.87759 26.2793 2.81762 26.2939C2.71099 26.3219 2.58437 26.3526 2.44176 26.3806C2.38978 26.3912 2.46975 26.5632 2.7723 26.6138C3.05486 26.6605 3.35342 26.6578 3.39207 26.6578C3.43072 26.6578 3.72928 26.6605 4.01184 26.6138C4.31439 26.5632 4.39436 26.3912 4.34238 26.3806C4.19977 26.3526 4.07315 26.3206 3.96652 26.2939C3.90654 26.2779 3.85056 26.238 3.84657 26.1766C3.84257 26.106 3.84657 26.0514 3.86389 25.9194C3.88388 25.7675 3.96519 25.5542 4.02117 25.4196L4.19577 25.0744C4.19577 25.0744 4.64627 24.1561 4.76356 23.8335C4.88085 23.5123 4.97414 22.8965 4.99014 22.646C5.00747 22.3954 5.00347 22.2674 4.89551 21.9555V21.9542ZM2.42843 22.9272C2.37911 22.9912 2.22184 23.0538 2.16986 23.0738C2.15919 23.0778 2.15386 23.0871 2.1552 23.0978C2.17519 23.2257 2.30048 24.0241 2.31914 24.1094C2.33913 24.2027 2.32846 24.2027 2.3218 24.204C2.3138 24.204 2.30314 24.1747 2.30314 24.1747C2.30314 24.1747 2.21251 23.9308 2.18185 23.8442C2.15919 23.7789 2.09122 23.5363 2.05923 23.4243C2.04857 23.3857 2.03924 23.3457 2.03258 23.3057C2.01125 23.1778 1.9646 22.8779 1.94861 22.6766C1.92728 22.4154 1.98059 22.1835 1.98059 22.1835C2.02191 21.8543 2.34313 21.649 2.34313 21.649C2.63502 21.4717 2.78563 21.717 2.78563 21.717C2.87759 21.8716 2.76697 21.9769 2.69899 22.0462C2.63102 22.1155 2.37112 22.2394 2.23783 22.3541C2.18985 22.3954 2.20185 22.4714 2.20185 22.486C2.20584 22.562 2.31647 22.6353 2.31914 22.6366C2.40044 22.6859 2.48441 22.7086 2.5044 22.7686C2.52173 22.8179 2.42843 22.9272 2.42843 22.9272ZM4.84486 22.6793C4.82887 22.8805 4.78088 23.1804 4.76089 23.3084C4.75423 23.3484 4.74623 23.387 4.73423 23.427C4.70358 23.539 4.63427 23.7802 4.61161 23.8468C4.58229 23.9335 4.49032 24.1774 4.49032 24.1774C4.49032 24.1774 4.47966 24.208 4.47167 24.2067C4.46367 24.2067 4.45434 24.2067 4.47433 24.1121C4.49299 24.0268 4.61828 23.2284 4.63827 23.1005C4.6396 23.0898 4.63427 23.0805 4.62361 23.0765C4.57163 23.0565 4.41435 22.9925 4.36504 22.9299C4.36504 22.9299 4.27174 22.8219 4.28907 22.7712C4.30906 22.7113 4.39303 22.6886 4.47433 22.6393C4.477 22.6393 4.58762 22.566 4.59162 22.4887C4.59162 22.4727 4.60362 22.3981 4.55563 22.3567C4.42235 22.2421 4.16378 22.1182 4.09447 22.0488C4.0265 21.9795 3.91587 21.8742 4.00784 21.7196C4.00784 21.7196 4.15845 21.4744 4.45034 21.6517C4.45034 21.6517 4.77155 21.8569 4.81287 22.1861C4.81287 22.1861 4.86618 22.418 4.84486 22.6793Z" fill="#555659"/>
<path d="M7.2413 28.3811C7.13068 28.0612 6.84278 27.9199 6.74682 27.9013C6.65086 27.8826 6.51224 27.8626 6.33631 27.9519C6.17237 28.0346 6.13105 28.2838 6.20436 28.4464C6.259 28.5664 6.63486 28.8276 6.69084 28.8649C6.74682 28.9022 6.73482 28.9502 6.71083 28.9422C6.66685 28.9276 6.62953 28.9182 6.54823 28.9102C6.47092 28.9022 5.81383 28.8942 5.74453 28.8929H5.7392C5.66989 28.8929 5.01147 28.9022 4.9355 28.9102C4.85419 28.9182 4.81687 28.9276 4.77289 28.9422C4.7489 28.9502 4.7369 28.9022 4.79288 28.8649C4.84886 28.8276 5.22605 28.5664 5.27937 28.4464C5.35267 28.2838 5.31136 28.0359 5.14742 27.9519C4.97015 27.8626 4.83153 27.8826 4.7369 27.9013C4.64227 27.9199 4.35438 28.0612 4.24242 28.3811C4.13313 28.6943 4.13046 28.8209 4.14779 29.0715C4.16512 29.3221 4.25708 29.9378 4.37437 30.2591C4.49166 30.5803 4.94216 31.4999 4.94216 31.4999L5.05279 31.7199C5.05279 31.7199 5.23538 32.1104 5.26604 32.3463C5.28337 32.4796 5.28736 32.5329 5.28337 32.6035C5.27937 32.6648 5.22339 32.7061 5.16341 32.7208C5.05678 32.7488 4.93016 32.7795 4.78755 32.8074C4.73557 32.8181 4.81554 32.99 5.11809 33.0407C5.40066 33.0873 5.69921 33.0847 5.73786 33.0847C5.77651 33.0847 6.07507 33.0873 6.35763 33.0407C6.66019 32.99 6.74015 32.8181 6.68817 32.8074C6.54556 32.7795 6.41894 32.7475 6.31231 32.7208C6.25234 32.7048 6.19636 32.6648 6.19236 32.6035C6.18836 32.5329 6.19236 32.4782 6.20969 32.3463C6.22968 32.1943 6.31098 31.9811 6.36696 31.8465L6.54156 31.5013C6.54156 31.5013 6.99206 30.5829 7.10935 30.2604C7.22664 29.9392 7.31994 29.3234 7.33593 29.0728C7.35326 28.8223 7.34926 28.6943 7.2413 28.3824V28.3811ZM4.77422 29.3554C4.72491 29.4194 4.56763 29.482 4.51565 29.502C4.50499 29.506 4.49966 29.5153 4.50099 29.526C4.52098 29.654 4.64627 30.4523 4.66493 30.5376C4.68492 30.6309 4.67426 30.6309 4.6676 30.6323C4.6596 30.6323 4.64894 30.6029 4.64894 30.6029C4.64894 30.6029 4.5583 30.359 4.52765 30.2724C4.50499 30.2071 4.43701 29.9645 4.40503 29.8525C4.39436 29.8139 4.38503 29.7739 4.37837 29.7339C4.35704 29.606 4.3104 29.3061 4.2944 29.1048C4.27308 28.8436 4.32639 28.6117 4.32639 28.6117C4.36771 28.2825 4.68892 28.0772 4.68892 28.0772C4.98081 27.8999 5.13142 28.1452 5.13142 28.1452C5.22339 28.2998 5.11276 28.4051 5.04479 28.4744C4.97681 28.5437 4.71691 28.6677 4.58363 28.7823C4.53564 28.8236 4.54764 28.8996 4.54764 28.9142C4.55164 28.9902 4.66226 29.0635 4.66493 29.0648C4.74623 29.1142 4.8302 29.1368 4.85019 29.1968C4.86752 29.2461 4.77422 29.3554 4.77422 29.3554ZM7.19065 29.1062C7.17466 29.3074 7.12668 29.6073 7.10669 29.7353C7.10002 29.7752 7.09202 29.8139 7.08003 29.8539C7.04937 29.9658 6.98007 30.2071 6.95741 30.2737C6.92809 30.3604 6.83612 30.6043 6.83612 30.6043C6.83612 30.6043 6.82546 30.6349 6.81746 30.6336C6.80946 30.6336 6.80013 30.6336 6.82013 30.539C6.83879 30.4537 6.96407 29.6553 6.98406 29.5273C6.9854 29.5167 6.98007 29.5073 6.9694 29.5033C6.91742 29.4834 6.76015 29.4194 6.71083 29.3567C6.71083 29.3567 6.61753 29.2488 6.63486 29.1981C6.65485 29.1381 6.73882 29.1155 6.82013 29.0662C6.82279 29.0662 6.93342 28.9929 6.93741 28.9156C6.93741 28.8996 6.94941 28.8249 6.90143 28.7836C6.76814 28.669 6.50957 28.545 6.44027 28.4757C6.37096 28.4064 6.26167 28.3011 6.35363 28.1465C6.35363 28.1465 6.50424 27.9013 6.79613 28.0785C6.79613 28.0785 7.11735 28.2838 7.15867 28.613C7.15867 28.613 7.21198 28.8449 7.19065 29.1062Z" fill="#555659"/>
<path d="M31.1524 28.7197C31.0417 28.3998 30.7539 28.2586 30.6579 28.2399C30.5619 28.2212 30.4233 28.2012 30.2474 28.2905C30.0834 28.3732 30.0421 28.6224 30.1154 28.785C30.1701 28.905 30.5459 29.1662 30.6019 29.2035C30.6579 29.2409 30.6459 29.2888 30.6219 29.2808C30.5779 29.2662 30.5406 29.2569 30.4593 29.2489C30.382 29.2409 29.7249 29.2329 29.6556 29.2315H29.6503C29.581 29.2315 28.9225 29.2409 28.8466 29.2489C28.7653 29.2569 28.7279 29.2662 28.684 29.2808C28.66 29.2888 28.648 29.2409 28.704 29.2035C28.7599 29.1662 29.1371 28.905 29.1904 28.785C29.2637 28.6224 29.2224 28.3745 29.0585 28.2905C28.8812 28.2012 28.7426 28.2212 28.648 28.2399C28.5533 28.2586 28.2655 28.3998 28.1535 28.7197C28.0442 29.0329 28.0415 29.1596 28.0589 29.4101C28.0762 29.6607 28.1682 30.2765 28.2854 30.5977C28.4027 30.9189 28.8532 31.8386 28.8532 31.8386L28.9639 32.0585C28.9639 32.0585 29.1465 32.449 29.1771 32.6849C29.1944 32.8182 29.1984 32.8715 29.1944 32.9421C29.1904 33.0035 29.1345 33.0448 29.0745 33.0594C28.9679 33.0874 28.8412 33.1181 28.6986 33.1461C28.6466 33.1567 28.7266 33.3287 29.0292 33.3793C29.3117 33.426 29.6103 33.4233 29.6489 33.4233C29.6876 33.4233 29.9861 33.426 30.2687 33.3793C30.5713 33.3287 30.6512 33.1567 30.5992 33.1461C30.4566 33.1181 30.33 33.0861 30.2234 33.0594C30.1634 33.0434 30.1074 33.0035 30.1034 32.9421C30.0994 32.8715 30.1034 32.8169 30.1208 32.6849C30.1407 32.533 30.2221 32.3197 30.278 32.1851L30.4526 31.8399C30.4526 31.8399 30.9031 30.9216 31.0204 30.599C31.1377 30.2778 31.231 29.662 31.247 29.4115C31.263 29.1609 31.2603 29.0329 31.1524 28.7211V28.7197ZM28.6853 29.694C28.636 29.758 28.4787 29.8206 28.4267 29.8406C28.4161 29.8446 28.4107 29.854 28.4121 29.8646C28.4321 29.9926 28.5573 30.7909 28.576 30.8762C28.596 30.9695 28.5853 30.9695 28.5787 30.9709C28.5707 30.9709 28.56 30.9416 28.56 30.9416C28.56 30.9416 28.4694 30.6976 28.4387 30.611C28.4161 30.5457 28.3481 30.3031 28.3161 30.1912C28.3054 30.1525 28.2961 30.1125 28.2894 30.0725C28.2681 29.9446 28.2215 29.6447 28.2055 29.4434C28.1841 29.1822 28.2375 28.9503 28.2375 28.9503C28.2788 28.6211 28.6 28.4158 28.6 28.4158C28.8919 28.2386 29.0425 28.4838 29.0425 28.4838C29.1345 28.6384 29.0238 28.7437 28.9559 28.813C28.8879 28.8823 28.628 29.0063 28.4947 29.1209C28.4467 29.1622 28.4587 29.2382 28.4587 29.2529C28.4627 29.3288 28.5733 29.4021 28.576 29.4035C28.6573 29.4528 28.7413 29.4754 28.7613 29.5354C28.7786 29.5847 28.6853 29.694 28.6853 29.694ZM31.1017 29.4448C31.0857 29.646 31.0377 29.9459 31.0178 30.0739C31.0111 30.1139 31.0031 30.1525 30.9911 30.1925C30.9604 30.3045 30.8911 30.5457 30.8685 30.6123C30.8392 30.699 30.7472 30.9429 30.7472 30.9429C30.7472 30.9429 30.7365 30.9735 30.7285 30.9722C30.7205 30.9722 30.7112 30.9722 30.7312 30.8776C30.7499 30.7923 30.8751 29.9939 30.8951 29.866C30.8965 29.8553 30.8911 29.846 30.8805 29.842C30.8285 29.822 30.6712 29.758 30.6219 29.6954C30.6219 29.6954 30.5286 29.5874 30.5459 29.5367C30.5659 29.4768 30.6499 29.4541 30.7312 29.4048C30.7339 29.4048 30.8445 29.3315 30.8485 29.2542C30.8485 29.2382 30.8605 29.1636 30.8125 29.1222C30.6792 29.0076 30.4206 28.8837 30.3513 28.8144C30.282 28.745 30.1727 28.6397 30.2647 28.4851C30.2647 28.4851 30.4153 28.2399 30.7072 28.4172C30.7072 28.4172 31.0284 28.6224 31.0697 28.9516C31.0697 28.9516 31.1231 29.1835 31.1017 29.4448Z" fill="#555659"/>
<path d="M33.4982 22.2914C33.3875 21.9715 33.0996 21.8302 33.0037 21.8116C32.9077 21.7929 32.7691 21.7729 32.5932 21.8622C32.4292 21.9448 32.3879 22.1941 32.4612 22.3567C32.5159 22.4766 32.8917 22.7379 32.9477 22.7752C33.0037 22.8125 32.9917 22.8605 32.9677 22.8525C32.9237 22.8378 32.8864 22.8285 32.8051 22.8205C32.7278 22.8125 32.0707 22.8045 32.0014 22.8032H31.9961C31.9268 22.8032 31.2683 22.8125 31.1924 22.8205C31.1111 22.8285 31.0737 22.8378 31.0298 22.8525C31.0058 22.8605 30.9938 22.8125 31.0498 22.7752C31.1057 22.7379 31.4829 22.4766 31.5362 22.3567C31.6095 22.1941 31.5682 21.9462 31.4043 21.8622C31.227 21.7729 31.0884 21.7929 30.9938 21.8116C30.8991 21.8302 30.6112 21.9715 30.4993 22.2914C30.39 22.6046 30.3873 22.7312 30.4047 22.9818C30.422 23.2324 30.5139 23.8481 30.6312 24.1693C30.7485 24.4906 31.199 25.4102 31.199 25.4102L31.3097 25.6301C31.3097 25.6301 31.4923 26.0206 31.5229 26.2566C31.5402 26.3898 31.5442 26.4432 31.5402 26.5138C31.5362 26.5751 31.4803 26.6164 31.4203 26.6311C31.3136 26.6591 31.187 26.6897 31.0444 26.7177C30.9924 26.7284 31.0724 26.9003 31.375 26.951C31.6575 26.9976 31.9561 26.995 31.9947 26.995C32.0334 26.995 32.3319 26.9976 32.6145 26.951C32.9171 26.9003 32.997 26.7284 32.945 26.7177C32.8024 26.6897 32.6758 26.6577 32.5692 26.6311C32.5092 26.6151 32.4532 26.5751 32.4492 26.5138C32.4452 26.4432 32.4492 26.3885 32.4666 26.2566C32.4865 26.1046 32.5678 25.8914 32.6238 25.7567L32.7984 25.4115C32.7984 25.4115 33.2489 24.4932 33.3662 24.1707C33.4835 23.8495 33.5768 23.2337 33.5928 22.9831C33.6101 22.7325 33.6061 22.6046 33.4982 22.2927V22.2914ZM31.0311 23.2657C30.9818 23.3297 30.8245 23.3923 30.7725 23.4123C30.7619 23.4163 30.7565 23.4256 30.7579 23.4363C30.7778 23.5642 30.9031 24.3626 30.9218 24.4479C30.9418 24.5412 30.9311 24.5412 30.9245 24.5425C30.9165 24.5425 30.9058 24.5132 30.9058 24.5132C30.9058 24.5132 30.8152 24.2693 30.7845 24.1827C30.7619 24.1174 30.6939 23.8748 30.6619 23.7628C30.6512 23.7242 30.6419 23.6842 30.6352 23.6442C30.6139 23.5163 30.5673 23.2164 30.5513 23.0151C30.5299 22.7539 30.5833 22.522 30.5833 22.522C30.6246 22.1927 30.9458 21.9875 30.9458 21.9875C31.2377 21.8102 31.3883 22.0555 31.3883 22.0555C31.4803 22.2101 31.3696 22.3154 31.3017 22.3847C31.2337 22.454 30.9738 22.5779 30.8405 22.6926C30.7925 22.7339 30.8045 22.8098 30.8045 22.8245C30.8085 22.9005 30.9191 22.9738 30.9218 22.9751C31.0031 23.0244 31.0871 23.0471 31.1071 23.1071C31.1244 23.1564 31.0311 23.2657 31.0311 23.2657ZM33.4475 23.0178C33.4315 23.219 33.3835 23.5189 33.3636 23.6469C33.3569 23.6869 33.3489 23.7255 33.3369 23.7655C33.3062 23.8775 33.2369 24.1187 33.2143 24.1853C33.185 24.272 33.093 24.5159 33.093 24.5159C33.093 24.5159 33.0823 24.5465 33.0743 24.5452C33.0663 24.5452 33.057 24.5452 33.077 24.4506C33.0957 24.3653 33.2209 23.5669 33.2409 23.4389C33.2423 23.4283 33.2369 23.419 33.2263 23.415C33.1743 23.395 33.017 23.331 32.9677 23.2683C32.9677 23.2683 32.8744 23.1604 32.8917 23.1097C32.9117 23.0498 32.9957 23.0271 33.077 22.9778C33.0797 22.9778 33.1903 22.9045 33.1943 22.8272C33.1943 22.8112 33.2063 22.7365 33.1583 22.6952C33.025 22.5806 32.7664 22.4566 32.6971 22.3873C32.6278 22.318 32.5185 22.2127 32.6105 22.0581C32.6105 22.0581 32.7611 21.8129 33.053 21.9902C33.053 21.9902 33.3742 22.1954 33.4155 22.5246C33.4155 22.5246 33.4688 22.7565 33.4475 23.0178Z" fill="#555659"/>
<path d="M31.1524 16.1564C31.0417 15.8365 30.7539 15.6952 30.6579 15.6765C30.5619 15.6579 30.4233 15.6379 30.2474 15.7272C30.0834 15.8098 30.0421 16.0591 30.1154 16.2217C30.1701 16.3416 30.5459 16.6029 30.6019 16.6402C30.6579 16.6775 30.6459 16.7255 30.6219 16.7175C30.5779 16.7028 30.5406 16.6935 30.4593 16.6855C30.382 16.6775 29.7249 16.6695 29.6556 16.6682H29.6503C29.581 16.6682 28.9225 16.6775 28.8466 16.6855C28.7653 16.6935 28.7279 16.7028 28.684 16.7175C28.66 16.7255 28.648 16.6775 28.704 16.6402C28.7599 16.6029 29.1371 16.3416 29.1904 16.2217C29.2637 16.0591 29.2224 15.8112 29.0585 15.7272C28.8812 15.6379 28.7426 15.6579 28.648 15.6765C28.5533 15.6952 28.2655 15.8365 28.1535 16.1564C28.0442 16.4696 28.0415 16.5962 28.0589 16.8468C28.0762 17.0973 28.1682 17.7131 28.2854 18.0343C28.4027 18.3555 28.8532 19.2752 28.8532 19.2752L28.9639 19.4951C28.9639 19.4951 29.1465 19.8856 29.1771 20.1216C29.1944 20.2548 29.1984 20.3081 29.1944 20.3788C29.1904 20.4401 29.1345 20.4814 29.0745 20.4961C28.9679 20.5241 28.8412 20.5547 28.6986 20.5827C28.6466 20.5934 28.7266 20.7653 29.0292 20.816C29.3117 20.8626 29.6103 20.8599 29.6489 20.8599C29.6876 20.8599 29.9861 20.8626 30.2687 20.816C30.5713 20.7653 30.6512 20.5934 30.5992 20.5827C30.4566 20.5547 30.33 20.5227 30.2234 20.4961C30.1634 20.4801 30.1074 20.4401 30.1034 20.3788C30.0994 20.3081 30.1034 20.2535 30.1208 20.1216C30.1407 19.9696 30.2221 19.7564 30.278 19.6217L30.4526 19.2765C30.4526 19.2765 30.9031 18.3582 31.0204 18.0357C31.1377 17.7145 31.231 17.0987 31.247 16.8481C31.263 16.5975 31.2603 16.4696 31.1524 16.1577V16.1564ZM28.6853 17.1293C28.636 17.1933 28.4787 17.256 28.4267 17.2759C28.4161 17.2799 28.4107 17.2893 28.4121 17.2999C28.4321 17.4279 28.5573 18.2263 28.576 18.3116C28.596 18.4049 28.5853 18.4049 28.5787 18.4062C28.5707 18.4062 28.56 18.3769 28.56 18.3769C28.56 18.3769 28.4694 18.133 28.4387 18.0463C28.4161 17.981 28.3481 17.7384 28.3161 17.6265C28.3054 17.5878 28.2961 17.5478 28.2894 17.5079C28.2681 17.3799 28.2215 17.08 28.2055 16.8788C28.1841 16.6175 28.2375 16.3856 28.2375 16.3856C28.2788 16.0564 28.6 15.8511 28.6 15.8511C28.8919 15.6739 29.0425 15.9191 29.0425 15.9191C29.1345 16.0737 29.0238 16.179 28.9559 16.2483C28.8879 16.3176 28.628 16.4416 28.4947 16.5562C28.4467 16.5975 28.4587 16.6735 28.4587 16.6882C28.4627 16.7641 28.5733 16.8374 28.576 16.8388C28.6573 16.8881 28.7413 16.9108 28.7613 16.9707C28.7786 17.02 28.6853 17.1293 28.6853 17.1293ZM31.1017 16.8814C31.0857 17.0827 31.0377 17.3826 31.0178 17.5105C31.0111 17.5505 31.0031 17.5892 30.9911 17.6291C30.9604 17.7411 30.8911 17.9824 30.8685 18.049C30.8392 18.1356 30.7472 18.3795 30.7472 18.3795C30.7472 18.3795 30.7365 18.4102 30.7285 18.4089C30.7205 18.4089 30.7112 18.4089 30.7312 18.3142C30.7499 18.2289 30.8751 17.4306 30.8951 17.3026C30.8965 17.2919 30.8911 17.2826 30.8805 17.2786C30.8285 17.2586 30.6712 17.1946 30.6219 17.132C30.6219 17.132 30.5286 17.024 30.5459 16.9734C30.5659 16.9134 30.6499 16.8908 30.7312 16.8414C30.7339 16.8414 30.8445 16.7681 30.8485 16.6908C30.8485 16.6748 30.8605 16.6002 30.8125 16.5589C30.6792 16.4443 30.4206 16.3203 30.3513 16.251C30.282 16.1817 30.1727 16.0764 30.2647 15.9218C30.2647 15.9218 30.4153 15.6765 30.7072 15.8538C30.7072 15.8538 31.0284 16.0591 31.0697 16.3883C31.0697 16.3883 31.1231 16.6202 31.1017 16.8814Z" fill="#555659"/>
<path d="M28.0455 13.0949C27.2952 10.8024 25.3519 9.78145 24.7095 9.6495C24.0657 9.51754 23.13 9.36827 21.9345 10.0134C20.8282 10.6105 20.5497 12.3925 21.0482 13.564C21.4134 14.4251 23.9577 16.3044 24.3363 16.5669C24.7148 16.8295 24.6322 17.1774 24.4695 17.1174C24.171 17.0094 23.9204 16.9401 23.3726 16.8841C22.8528 16.8308 18.4105 16.7682 17.9413 16.7615C17.9413 16.7615 17.9347 16.7615 17.9213 16.7615C17.908 16.7615 17.9013 16.7615 17.9013 16.7615C17.4335 16.7682 12.9898 16.8308 12.47 16.8841C11.9209 16.9401 11.6717 17.0094 11.3731 17.1174C11.2118 17.176 11.1279 16.8295 11.5064 16.5669C11.8849 16.3044 14.4293 14.4237 14.7945 13.564C15.2916 12.3938 15.0131 10.6118 13.9082 10.0134C12.7139 9.36827 11.7783 9.51754 11.1332 9.6495C10.4921 9.78145 8.54749 10.8024 7.7971 13.0949C7.06271 15.3407 7.04005 16.2524 7.15334 18.057C7.26663 19.8617 7.89173 24.2774 8.6861 26.5899C9.48047 28.901 12.5233 35.4985 12.5233 35.4985L13.7935 38.1669C13.7935 38.1669 15.7421 38.8626 17.1989 38.8253C17.3802 38.8213 17.5228 38.8173 17.6348 38.8146V38.8266C17.7454 38.8293 18.4625 38.82 18.6437 38.8253C20.1005 38.8626 22.0491 38.1669 22.0491 38.1669L23.3193 35.4985C23.3193 35.4985 26.3622 28.9023 27.1565 26.5899C27.9509 24.2787 28.5747 19.8617 28.6893 18.057C28.8026 16.2524 28.7813 15.3407 28.0455 13.0949ZM11.3824 20.0896C11.0479 20.5454 9.98828 21.0026 9.63242 21.1466C9.56311 21.1745 9.52312 21.2452 9.53379 21.3172C9.66974 22.2395 10.5188 27.9707 10.6414 28.5851C10.776 29.2529 10.708 29.2529 10.6587 29.2622C10.6094 29.2715 10.5321 29.0529 10.5321 29.0529C10.5321 29.0529 9.91764 27.2989 9.71639 26.6805C9.56311 26.21 9.10195 24.472 8.89136 23.6683C8.81805 23.3884 8.75941 23.1045 8.71409 22.8193C8.57281 21.9036 8.25293 19.7497 8.14364 18.3023C8.00103 16.423 8.36222 14.7609 8.36222 14.7609C8.63945 12.3965 10.8093 10.9184 10.8093 10.9184C12.7766 9.64017 13.7935 11.4022 13.7935 11.4022C14.416 12.5138 13.6682 13.2655 13.2057 13.7666C12.7433 14.2678 10.9946 15.1528 10.0949 15.9805C9.76703 16.2817 9.85633 16.8202 9.85234 16.9321C9.87633 17.4799 10.628 18.0011 10.6427 18.0104C11.1892 18.3609 11.7556 18.5275 11.8956 18.954C12.0129 19.3139 11.3824 20.0896 11.3824 20.0896ZM27.699 18.3023C27.5884 19.7497 27.2698 21.9036 27.1286 22.8193C27.0846 23.1058 27.0259 23.3884 26.9513 23.6683C26.7394 24.472 26.2795 26.21 26.1263 26.6805C25.925 27.2989 25.3106 29.0529 25.3106 29.0529C25.3106 29.0529 25.2346 29.2702 25.1839 29.2622C25.1333 29.2542 25.0667 29.2542 25.2013 28.5851C25.3252 27.9707 26.1729 22.2395 26.3089 21.3172C26.3195 21.2438 26.2795 21.1732 26.2102 21.1466C25.8557 21.0026 24.7948 20.5468 24.4602 20.0896C24.4602 20.0896 23.8285 19.3126 23.9471 18.954C24.087 18.5275 24.6535 18.3609 25.1999 18.0104C25.2146 18.0011 25.965 17.4799 25.9903 16.9321C25.9863 16.8202 26.0756 16.2817 25.7477 15.9805C24.8481 15.1541 23.0994 14.2678 22.6369 13.7666C22.1744 13.2655 21.4267 12.5138 22.0491 11.4022C22.0491 11.4022 23.0661 9.64017 25.0333 10.9184C25.0333 10.9184 27.2019 12.3965 27.4804 14.7609C27.4804 14.7609 27.8416 16.423 27.699 18.3023Z" stroke="#616266" stroke-width="1.33284" stroke-miterlimit="10"/>
<path d="M28.0455 13.0949C27.2952 10.8024 25.3519 9.78145 24.7095 9.6495C24.0657 9.51754 23.13 9.36827 21.9345 10.0134C20.8282 10.6105 20.5497 12.3925 21.0482 13.564C21.4134 14.4251 23.9577 16.3044 24.3363 16.5669C24.7148 16.8295 24.6322 17.1774 24.4695 17.1174C24.171 17.0094 23.9204 16.9401 23.3726 16.8841C22.8528 16.8308 18.4105 16.7682 17.9413 16.7615C17.9413 16.7615 17.9347 16.7615 17.9213 16.7615C17.908 16.7615 17.9013 16.7615 17.9013 16.7615C17.4335 16.7682 12.9898 16.8308 12.47 16.8841C11.9209 16.9401 11.6717 17.0094 11.3731 17.1174C11.2118 17.176 11.1279 16.8295 11.5064 16.5669C11.8849 16.3044 14.4293 14.4237 14.7945 13.564C15.2916 12.3938 15.0131 10.6118 13.9082 10.0134C12.7139 9.36827 11.7783 9.51754 11.1332 9.6495C10.4921 9.78145 8.54749 10.8024 7.7971 13.0949C7.06271 15.3407 7.04005 16.2524 7.15334 18.057C7.26663 19.8617 7.89173 24.2774 8.6861 26.5899C9.48047 28.901 12.5233 35.4985 12.5233 35.4985L13.7935 38.1669C13.7935 38.1669 15.7421 38.8626 17.1989 38.8253C17.3802 38.8213 17.5228 38.8173 17.6348 38.8146V38.8266C17.7454 38.8293 18.4625 38.82 18.6437 38.8253C20.1005 38.8626 22.0491 38.1669 22.0491 38.1669L23.3193 35.4985C23.3193 35.4985 26.3622 28.9023 27.1565 26.5899C27.9509 24.2787 28.5747 19.8617 28.6893 18.057C28.8026 16.2524 28.7813 15.3407 28.0455 13.0949ZM11.3824 20.0896C11.0479 20.5454 9.98828 21.0026 9.63242 21.1466C9.56311 21.1745 9.52312 21.2452 9.53379 21.3172C9.66974 22.2395 10.5188 27.9707 10.6414 28.5851C10.776 29.2529 10.708 29.2529 10.6587 29.2622C10.6094 29.2715 10.5321 29.0529 10.5321 29.0529C10.5321 29.0529 9.91764 27.2989 9.71639 26.6805C9.56311 26.21 9.10195 24.472 8.89136 23.6683C8.81805 23.3884 8.75941 23.1045 8.71409 22.8193C8.57281 21.9036 8.25293 19.7497 8.14364 18.3023C8.00103 16.423 8.36222 14.7609 8.36222 14.7609C8.63945 12.3965 10.8093 10.9184 10.8093 10.9184C12.7766 9.64017 13.7935 11.4022 13.7935 11.4022C14.416 12.5138 13.6682 13.2655 13.2057 13.7666C12.7433 14.2678 10.9946 15.1528 10.0949 15.9805C9.76703 16.2817 9.85633 16.8202 9.85233 16.9321C9.87633 17.4799 10.628 18.0011 10.6427 18.0104C11.1892 18.3609 11.7556 18.5275 11.8956 18.954C12.0129 19.3139 11.3824 20.0896 11.3824 20.0896ZM27.699 18.3023C27.5884 19.7497 27.2698 21.9036 27.1286 22.8193C27.0846 23.1058 27.0259 23.3884 26.9513 23.6683C26.7394 24.472 26.2795 26.21 26.1263 26.6805C25.925 27.2989 25.3106 29.0529 25.3106 29.0529C25.3106 29.0529 25.2346 29.2702 25.1839 29.2622C25.1333 29.2542 25.0667 29.2542 25.2013 28.5851C25.3252 27.9707 26.1729 22.2395 26.3089 21.3172C26.3195 21.2438 26.2795 21.1732 26.2102 21.1466C25.8557 21.0026 24.7948 20.5468 24.4602 20.0896C24.4602 20.0896 23.8285 19.3126 23.9471 18.954C24.087 18.5275 24.6535 18.3609 25.1999 18.0104C25.2146 18.0011 25.965 17.4799 25.9903 16.9321C25.9863 16.8202 26.0756 16.2817 25.7477 15.9805C24.8481 15.1541 23.0994 14.2678 22.6369 13.7666C22.1744 13.2655 21.4267 12.5138 22.0491 11.4022C22.0491 11.4022 23.0661 9.64017 25.0333 10.9184C25.0333 10.9184 27.2019 12.3965 27.4804 14.7609C27.4804 14.7609 27.8416 16.423 27.699 18.3023Z" fill="white"/>
<path d="M17.8573 38.9519C26.9954 38.9519 34.4032 31.5661 34.4032 22.4554C34.4032 13.3446 26.9954 5.95886 17.8573 5.95886C8.71934 5.95886 1.31152 13.3446 1.31152 22.4554C1.31152 31.5661 8.71934 38.9519 17.8573 38.9519Z" stroke="#616266" stroke-width="2.13254" stroke-miterlimit="10"/>
<path d="M17.8573 39.1958C27.1072 39.1958 34.6057 31.6638 34.6057 22.3727C34.6057 13.0816 27.1072 5.54968 17.8573 5.54968C8.60744 5.54968 1.10892 13.0816 1.10892 22.3727C1.10892 31.6638 8.60744 39.1958 17.8573 39.1958Z" stroke="white" stroke-width="0.73306" stroke-miterlimit="10"/>
<path d="M20.2406 29.4586C19.7091 29.4318 19.2008 29.3313 18.7214 29.108C18.6473 29.0735 18.5785 29.0277 18.5056 28.9899C18.464 28.9685 18.4543 28.9389 18.4585 28.894C18.4908 28.5426 18.5211 28.191 18.5528 27.8314C18.6039 27.8628 18.651 27.8936 18.7 27.9215C19.0081 28.0979 19.3448 28.191 19.6903 28.256C19.9707 28.3087 20.2539 28.3326 20.5383 28.2966C21.0128 28.2366 21.4042 28.0415 21.6334 27.5974C21.7803 27.3126 21.7968 27.0064 21.7672 26.6952C21.7452 26.4642 21.6767 26.247 21.5444 26.0549C21.3202 25.7297 21.0035 25.5551 20.6152 25.513C20.1882 25.4666 19.7864 25.5558 19.4089 25.7596C19.3922 25.7686 19.3612 25.7686 19.3455 25.7588C19.1795 25.6561 19.0148 25.5512 18.8512 25.4447C18.8364 25.4351 18.8218 25.4101 18.8228 25.3933C18.8491 25.0146 18.878 24.6362 18.9055 24.2576C18.9296 23.9254 18.9524 23.5933 18.9761 23.261C19.012 22.7584 19.0482 22.2558 19.0845 21.7532C19.0849 21.7469 19.0881 21.7409 19.091 21.7313C20.5096 21.7313 21.9278 21.7313 23.3556 21.7313C23.3281 21.8308 23.3016 21.9282 23.2743 22.0253C23.1875 22.3323 23.0991 22.639 23.0148 22.9466C23.0001 22.9999 22.9794 23.0186 22.9216 23.0184C22.0508 23.0163 21.1802 23.017 20.3096 23.017C20.2854 23.017 20.2611 23.017 20.2279 23.017C20.1835 23.5151 20.1394 24.0109 20.095 24.5087C20.2171 24.4892 20.3336 24.4648 20.4514 24.453C20.9683 24.4005 21.4777 24.4302 21.9606 24.639C22.6582 24.9408 23.0803 25.4793 23.252 26.2114C23.3778 26.7479 23.3801 27.288 23.1927 27.8128C22.9596 28.4655 22.5017 28.9116 21.8724 29.1877C21.3536 29.4153 20.8089 29.4898 20.2406 29.4586Z" fill="#3D3E3F"/>
<path d="M14.8267 28.0818C14.845 28.0728 14.8621 28.0663 14.8678 28.0545C14.8739 28.0418 14.8695 28.0241 14.8695 28.0085C14.8695 26.4404 14.8695 24.8723 14.8695 23.3042C14.8695 23.2824 14.8695 23.2604 14.8695 23.2321C14.4638 23.3096 14.0641 23.3859 13.6602 23.463C13.6602 23.0318 13.6602 22.6062 13.6602 22.178C14.5667 22.0042 15.4717 21.8306 16.3851 21.6556C16.3851 23.7992 16.3851 25.9364 16.3851 28.0812C16.8885 28.0812 17.3847 28.0812 17.8885 28.0812C17.7998 28.5015 17.7129 28.9131 17.6252 29.3278C16.2591 29.3278 14.8963 29.3278 13.5283 29.3278C13.5283 28.9144 13.5283 28.5009 13.5283 28.0818C13.9599 28.0818 14.3902 28.0818 14.8267 28.0818Z" fill="#3D3E3F"/>
</g>
</g>
</g>
<defs>
<clipPath id="clip0_1_4940">
<rect width="35.72" height="40" fill="white" transform="translate(0 0.202881)"/>
</clipPath>
<clipPath id="clip1_1_4940">
<rect width="35.72" height="40" fill="white" transform="translate(0 0.202881)"/>
</clipPath>
<clipPath id="clip2_1_4940">
<rect width="35.72" height="39.9851" fill="white" transform="translate(0 0.210327)"/>
</clipPath>
</defs>
</svg>
