<svg width="26" height="17" viewBox="0 0 26 17" fill="none" xmlns="http://www.w3.org/2000/svg">
<g clip-path="url(#clip0_7_15053)">
<path fill-rule="evenodd" clip-rule="evenodd" d="M7.99771 2.48995C7.6913 2.48995 7.38788 2.5503 7.10478 2.66756C6.82169 2.78482 6.56447 2.9567 6.3478 3.17337C6.13113 3.39004 5.95925 3.64726 5.84199 3.93035C5.72473 4.21345 5.66438 4.51687 5.66438 4.82328C5.66438 5.1297 5.72473 5.43312 5.84199 5.71621C5.95925 5.9993 6.13113 6.25653 6.3478 6.4732C6.56447 6.68987 6.82169 6.86174 7.10478 6.979C7.38788 7.09626 7.6913 7.15662 7.99771 7.15662C8.61655 7.15662 9.21004 6.91078 9.64763 6.4732C10.0852 6.03561 10.331 5.44212 10.331 4.82328C10.331 4.20444 10.0852 3.61095 9.64763 3.17337C9.21004 2.73578 8.61655 2.48995 7.99771 2.48995ZM4.33105 4.82328C4.33105 3.85082 4.71735 2.91819 5.40499 2.23056C6.09262 1.54292 7.02525 1.15662 7.99771 1.15662C8.97017 1.15662 9.9028 1.54292 10.5904 2.23056C11.2781 2.91819 11.6644 3.85082 11.6644 4.82328C11.6644 5.79574 11.2781 6.72837 10.5904 7.41601C9.9028 8.10364 8.97017 8.48995 7.99771 8.48995C7.02525 8.48995 6.09262 8.10364 5.40499 7.41601C4.71735 6.72837 4.33105 5.79574 4.33105 4.82328ZM7.99771 11.49C6.29638 11.49 4.67971 12.1466 3.67038 12.6686C3.22305 12.9006 2.92038 13.372 2.85171 13.9486L2.74838 14.8233H13.247L13.1437 13.9486C13.075 13.372 12.773 12.9006 12.325 12.6686C11.3157 12.1466 9.69905 11.49 7.99771 11.49ZM3.05771 11.4846C4.14505 10.922 5.98571 10.1566 7.99771 10.1566C10.0097 10.1566 11.8504 10.922 12.9377 11.4846C13.8437 11.9533 14.3564 12.8546 14.4677 13.7913L14.6597 15.4113C14.6708 15.5048 14.662 15.5996 14.6338 15.6895C14.6056 15.7794 14.5587 15.8622 14.4961 15.9327C14.4336 16.0031 14.3568 16.0595 14.2709 16.0981C14.185 16.1367 14.0919 16.1566 13.9977 16.1566H1.99771C1.90353 16.1566 1.81041 16.1367 1.7245 16.0981C1.63858 16.0595 1.56182 16.0031 1.49928 15.9327C1.43673 15.8622 1.38981 15.7794 1.36162 15.6895C1.33343 15.5996 1.3246 15.5048 1.33571 15.4113L1.52771 13.7913C1.63905 12.8546 2.15171 11.9533 3.05771 11.4846Z" fill="black"/>
</g>
<defs>
<clipPath id="clip0_7_15053">
<rect width="16" height="16" fill="white" transform="translate(-0.00219727 0.48999)"/>
</clipPath>
</defs>
</svg>
