<svg width="24" height="25" viewBox="0 0 24 25" fill="none" xmlns="http://www.w3.org/2000/svg">
<path d="M12 2.70297C15.206 2.70297 15.586 2.71797 16.847 2.77397C18.019 2.82597 18.652 3.02297 19.073 3.18697C19.5938 3.37842 20.065 3.68426 20.452 4.08197C20.873 4.50397 21.132 4.90197 21.347 5.45997C21.511 5.88197 21.707 6.51997 21.759 7.68697C21.816 8.95197 21.829 9.33197 21.829 12.534C21.829 15.74 21.816 16.12 21.759 17.38C21.708 18.552 21.511 19.185 21.347 19.607C21.1553 20.1274 20.8495 20.5982 20.452 20.985C20.0655 21.3832 19.5941 21.6891 19.073 21.88C18.652 22.045 18.014 22.241 16.847 22.293C15.581 22.349 15.202 22.363 12 22.363C8.794 22.363 8.414 22.349 7.153 22.293C5.981 22.241 5.348 22.045 4.927 21.88C4.40619 21.6885 3.93495 21.3827 3.548 20.985C3.14992 20.5987 2.844 20.1277 2.653 19.607C2.489 19.185 2.293 18.547 2.241 17.38C2.184 16.115 2.171 15.735 2.171 12.534C2.171 9.32697 2.184 8.94797 2.241 7.68697C2.292 6.51497 2.489 5.88197 2.653 5.45997C2.869 4.90197 3.131 4.49997 3.548 4.08197C3.97 3.65997 4.368 3.40197 4.927 3.18697C5.348 3.02297 5.986 2.82597 7.153 2.77397C8.414 2.71797 8.793 2.70297 12 2.70297ZM12 0.542969C8.742 0.542969 8.334 0.556969 7.055 0.612969C5.78 0.669969 4.903 0.875969 4.144 1.17097C3.34165 1.47236 2.61523 1.94617 2.016 2.55897C1.40439 3.15723 0.930705 3.88175 0.628 4.68197C0.333 5.44597 0.127 6.31797 0.07 7.59297C0.014 8.87697 0 9.28497 0 12.543C0 15.801 0.014 16.209 0.07 17.488C0.127 18.763 0.333 19.64 0.628 20.399C0.938 21.191 1.345 21.862 2.016 22.527C2.61447 23.1371 3.33903 23.6091 4.139 23.91C4.903 24.206 5.775 24.412 7.05 24.468C8.33 24.524 8.738 24.538 11.995 24.538C15.253 24.538 15.661 24.524 16.941 24.468C18.216 24.412 19.092 24.206 19.851 23.91C20.6513 23.6093 21.3762 23.1372 21.975 22.527C22.5852 21.9285 23.0572 21.2039 23.358 20.404C23.653 19.64 23.859 18.768 23.916 17.493C23.972 16.213 23.986 15.805 23.986 12.548C23.986 9.28997 23.972 8.88197 23.916 7.60197C23.859 6.32697 23.653 5.45097 23.358 4.69197C23.0686 3.88553 22.5986 3.15594 21.984 2.55897C21.3855 1.94882 20.661 1.47681 19.861 1.17597C19.097 0.880969 18.225 0.672969 16.95 0.617969C15.666 0.557969 15.258 0.542969 12 0.542969Z" fill="black"/>
</svg>
