<svg width="24" height="25" viewBox="0 0 24 25" fill="none" xmlns="http://www.w3.org/2000/svg">
<path d="M23.9702 18.723C23.8662 18.371 23.3652 18.123 23.3652 18.123L23.2412 18.057C22.4453 17.6725 21.7061 17.1806 21.0442 16.595C20.5442 16.144 20.1142 15.648 19.7712 15.122C19.4664 14.6689 19.2296 14.1736 19.0682 13.652C19.0212 13.462 19.0282 13.386 19.0682 13.287C19.1012 13.204 19.1982 13.125 19.2432 13.087C19.5242 12.885 19.9782 12.586 20.2572 12.404C20.4982 12.244 20.7052 12.108 20.8272 12.022C21.2182 11.743 21.4872 11.46 21.6442 11.154C21.8482 10.759 21.8742 10.324 21.7142 9.89597C21.5002 9.31897 20.9692 8.97497 20.2942 8.97497C20.1442 8.97497 19.9902 8.99297 19.8362 9.02497C19.4746 9.11258 19.1205 9.22861 18.7772 9.37197C18.772 9.37432 18.7663 9.37525 18.7606 9.37466C18.755 9.37408 18.7496 9.372 18.745 9.36864C18.7404 9.36528 18.7368 9.36076 18.7346 9.35555C18.7323 9.35033 18.7315 9.34461 18.7322 9.33897C18.7652 8.56697 18.8022 7.52897 18.7172 6.54597C18.6422 5.65497 18.4612 4.90297 18.1672 4.24797C17.8702 3.58997 17.4842 3.10397 17.1832 2.75197C16.7391 2.24572 16.2139 1.81687 15.6292 1.48297C14.5562 0.858969 13.3372 0.542969 12.0022 0.542969C10.6692 0.542969 9.45016 0.858969 8.37716 1.48197C7.79184 1.81678 7.26578 2.24588 6.82016 2.75197C6.51916 3.10397 6.13316 3.58997 5.83616 4.24797C5.54016 4.90297 5.36116 5.65197 5.28616 6.54597C5.20116 7.53497 5.23616 8.48897 5.27116 9.33897C5.27116 9.36497 5.24916 9.38197 5.22416 9.37197C4.88084 9.22862 4.52674 9.1126 4.16516 9.02497C4.0147 8.99213 3.86117 8.97537 3.70716 8.97497C3.03416 8.97497 2.50416 9.31897 2.28716 9.89597C2.12716 10.324 2.15216 10.759 2.35716 11.154C2.51616 11.46 2.78316 11.744 3.17416 12.022C3.29416 12.108 3.50216 12.244 3.74416 12.404C4.01616 12.584 4.45616 12.874 4.74016 13.074C4.77516 13.1 4.89516 13.191 4.93216 13.287C4.97216 13.388 4.98016 13.464 4.92716 13.667C4.76605 14.183 4.5313 14.673 4.23016 15.122C3.87197 15.6664 3.44399 16.1617 2.95716 16.595C2.29523 17.1806 1.55599 17.6725 0.760163 18.057C0.720163 18.077 0.673163 18.1 0.623163 18.13C0.623163 18.13 0.125163 18.389 0.0301626 18.723C-0.109837 19.216 0.262163 19.679 0.638163 19.927C1.25616 20.332 2.00816 20.55 2.44416 20.669C2.56616 20.702 2.67516 20.732 2.77516 20.762C2.83716 20.782 2.99516 20.843 3.06216 20.932C3.14616 21.043 3.15616 21.18 3.18616 21.334C3.23316 21.594 3.34116 21.916 3.65616 22.139C4.00616 22.382 4.44616 22.399 5.00716 22.422C5.59216 22.445 6.32016 22.473 7.15416 22.754C7.54016 22.883 7.89216 23.104 8.29516 23.356C9.14216 23.885 10.1952 24.543 11.9952 24.543C13.7952 24.543 14.8562 23.883 15.7082 23.351C16.1122 23.101 16.4582 22.883 16.8372 22.756C17.6712 22.476 18.3982 22.448 18.9842 22.425C19.5442 22.402 19.9852 22.387 20.3342 22.141C20.6732 21.904 20.7702 21.549 20.8142 21.284C20.8402 21.152 20.8542 21.034 20.9292 20.937C20.9942 20.853 21.1392 20.795 21.2062 20.772C21.3082 20.74 21.4222 20.709 21.5492 20.674C21.9852 20.554 22.5332 20.416 23.1992 20.034C24.0012 19.57 24.0552 19.004 23.9712 18.723H23.9702Z" fill="black"/>
</svg>
