<svg width="24" height="17" viewBox="0 0 24 17" fill="none" xmlns="http://www.w3.org/2000/svg">
<path d="M23.76 3.74259C23.76 3.74259 23.527 2.08759 22.805 1.36159C21.891 0.404586 20.869 0.400586 20.4 0.343586C17.044 0.100586 12.005 0.100586 12.005 0.100586H11.995C11.995 0.100586 6.956 0.100586 3.6 0.343586C3.131 0.400586 2.11 0.404586 1.195 1.36159C0.473 2.08759 0.244 3.74159 0.244 3.74159C0.244 3.74159 0 5.68859 0 7.62959V9.44859C0 11.3886 0.24 13.3336 0.24 13.3336C0.24 13.3336 0.473 14.9886 1.19 15.7156C2.105 16.6716 3.305 16.6386 3.84 16.7416C5.76 16.9246 12 16.9816 12 16.9816C12 16.9816 17.044 16.9716 20.4 16.7316C20.869 16.6766 21.89 16.6716 22.805 15.7156C23.527 14.9886 23.761 13.3336 23.761 13.3336C23.761 13.3336 24 11.3926 24 9.44759V7.62759C24 5.68759 23.76 3.74259 23.76 3.74259ZM9.52 11.6546V4.90959L16.003 8.29359L9.52 11.6546Z" fill="black"/>
</svg>
