<svg width="20" height="24" viewBox="0 0 20 24" fill="none" xmlns="http://www.w3.org/2000/svg">
<path d="M19.9277 9.93359C19.7379 9.95202 19.5474 9.96169 19.3567 9.96255C18.3279 9.96264 17.3152 9.70651 16.4102 9.21728C15.5051 8.72806 14.7362 8.02114 14.1727 7.16035V16.7024C14.1725 18.0971 13.7588 19.4604 12.9838 20.62C12.2089 21.7796 11.1075 22.6833 9.81889 23.2169C8.53032 23.7505 7.11245 23.89 5.74458 23.6179C4.37671 23.3457 3.12026 22.674 2.13412 21.6877C1.14799 20.7015 0.476442 19.4449 0.204412 18.077C-0.0676187 16.7091 0.0720801 15.2913 0.605843 14.0028C1.13961 12.7143 2.04346 11.613 3.20312 10.8381C4.36277 10.0633 5.72614 9.64973 7.12083 9.64973C7.26815 9.64973 7.41215 9.66297 7.55697 9.67207V13.1479C7.41215 13.1297 7.2698 13.1032 7.12083 13.1032C6.16627 13.1032 5.25081 13.4824 4.57584 14.1574C3.90086 14.8324 3.52166 15.7479 3.52166 16.7024C3.52166 17.657 3.90086 18.5724 4.57584 19.2474C5.25081 19.9224 6.16627 20.3016 7.12083 20.3016C9.1087 20.3016 10.8648 18.735 10.8648 16.7471L10.8996 0.542969H14.224C14.3758 1.98747 15.0306 3.33262 16.0739 4.3432C17.1171 5.35377 18.4824 5.96544 19.931 6.07124V9.93359" fill="black"/>
</svg>
