<svg width="23" height="20" viewBox="0 0 23 20" fill="none" xmlns="http://www.w3.org/2000/svg">
<path fill-rule="evenodd" clip-rule="evenodd" d="M18.921 0.166992L12.083 19.42H7.15202L13.988 0.166992H18.921ZM22.909 15.669C22.9081 16.1927 22.804 16.711 22.6028 17.1945C22.4015 17.6779 22.1069 18.1169 21.736 18.4865C21.365 18.8561 20.9248 19.149 20.4406 19.3485C19.9564 19.5479 19.4377 19.65 18.914 19.649C18.3904 19.65 17.8717 19.5479 17.3876 19.3484C16.9034 19.149 16.4633 18.8561 16.0924 18.4865C15.7215 18.1169 15.4271 17.6778 15.2259 17.1944C15.0248 16.7109 14.9208 16.1926 14.92 15.669C14.9208 15.1455 15.0248 14.6272 15.226 14.1439C15.4272 13.6606 15.7216 13.2217 16.0926 12.8522C16.4635 12.4828 16.9036 12.1901 17.3877 11.9908C17.8718 11.7916 18.3905 11.6897 18.914 11.691C21.114 11.691 22.909 13.47 22.909 15.669ZM13.23 0.166992C11.388 5.67799 8.06202 9.30599 0.64502 8.40499L2.16902 4.11299C5.29602 4.57199 7.76402 2.52399 8.42002 0.166992H13.23Z" fill="black"/>
</svg>
