<svg width="47" height="46" viewBox="0 0 47 46" fill="none" xmlns="http://www.w3.org/2000/svg">
<path d="M39.9604 27.7468C39.9059 27.8584 39.7981 27.9353 39.6745 27.9496C36.8575 28.2763 33.8642 27.8847 32.7104 27.7037C30.7839 25.7792 28.6983 23.6388 27.1608 21.768C27.003 21.5764 26.9955 21.3025 27.1405 21.1006C29.3332 18.0444 31.3411 15.6192 32.1898 14.659C34.6152 14.1305 37.0336 13.6627 38.6667 13.5959C38.7901 13.591 38.9074 13.6478 38.9796 13.7479C41.0849 16.6754 42.5905 19.4807 43.0738 20.5057C42.1071 23.1023 40.9442 25.7255 39.9604 27.7468ZM37.2727 32.7002C35.7198 35.2994 34.5401 36.8666 34.1621 37.3428C33.6491 38.0671 32.3411 39.9538 30.3093 41.862C30.1797 41.9838 30.0106 42.054 29.8324 42.0617C27.2879 42.1677 24.9222 41.9891 24.001 41.7882C23.2208 41.4657 21.4053 40.6495 19.2592 39.4631C19.0721 39.3598 18.9619 39.1581 18.9759 38.9454C19.0879 37.2822 19.6157 34.913 20.0827 32.4078C21.2371 30.381 22.4338 28.0685 23.6748 26.169C23.8056 25.9693 24.0502 25.8762 24.2812 25.9395C27.997 26.9535 31.2213 27.7236 32.5302 28.0181C34.3228 30.0961 36.0596 31.5574 37.228 32.4631C37.3008 32.5194 37.3195 32.6211 37.2727 32.7002ZM14.791 36.3122C14.6027 36.429 14.3629 36.4227 14.182 36.2946C12.564 35.1495 10.6335 33.6862 9.02559 32.1841C8.07707 30.5634 7.34561 28.4894 6.83498 26.7232C6.80197 26.6095 6.82739 26.4863 6.90235 26.3945C8.7066 24.177 10.872 22.4223 11.7773 21.7543C13.8195 22.635 16.1636 23.4122 18.2141 24.0941C18.4238 24.1636 18.5719 24.3515 18.5893 24.5713C18.8784 28.2184 19.5468 31.1679 19.7252 32.2949C18.9596 33.1128 16.9591 34.9669 14.791 36.3122ZM5.80414 21.9616C5.53646 20.2399 5.36044 18.4317 5.34104 17.6036C5.29665 15.6914 5.60047 13.9979 5.95338 12.4301C6.01138 12.1734 6.14457 11.9408 6.33887 11.7629C7.36391 10.8243 9.21745 9.16821 10.3872 8.41807C11.4899 7.71122 14.5545 6.72207 15.8183 6.35513C16.0632 6.28373 16.3242 6.39262 16.4503 6.61401C16.6022 6.88086 16.761 7.14579 16.9294 7.4066C17.9243 8.9551 19.0208 10.2883 19.4825 10.8656C18.8704 13.2955 18.6103 16.0198 18.4919 18.3179C18.4807 18.5335 18.3433 18.7223 18.1418 18.8009C14.9445 20.0478 12.5279 21.0235 11.7159 21.3981C9.51903 21.4908 7.42658 21.8652 6.01429 22.1118C5.91412 22.1295 5.81976 22.0614 5.80414 21.9616ZM21.9224 5.27472C22.0098 5.1391 22.153 5.04868 22.3132 5.02745C25.6012 4.59324 28.6093 4.52928 29.7655 4.56125C31.8696 5.96008 33.9256 7.80579 35.5666 9.55609C35.6815 9.67877 35.6986 9.86349 35.6079 10.0052C34.4368 11.836 32.734 13.5938 31.9859 14.3593C29.2118 15.0157 26.2708 15.9712 23.8837 16.7545C23.6514 16.8305 23.3962 16.7443 23.2574 16.543C21.4461 13.9124 20.295 11.6574 19.8437 10.8207C20.3336 8.62758 21.0187 6.67465 21.9224 5.27472ZM43.8854 26.8685C43.8264 26.8952 43.7589 26.8537 43.7555 26.7894C43.6176 24.089 43.3691 21.4654 43.2392 20.5057C43.2495 18.1737 42.8628 15.7537 42.4768 13.9692C42.463 13.9047 42.5201 13.8471 42.585 13.8601C44.7921 14.3105 45.5006 15.1368 45.5006 15.1368C44.3322 12.518 42.6486 10.5447 40.8187 9.05323C39.2544 5.77894 37.4535 4.26463 37.4535 4.26463C37.5993 4.98883 37.4989 5.8079 37.2408 6.65315C37.2245 6.7069 37.1629 6.73254 37.1123 6.70802C34.1137 5.24247 31.0173 4.57312 29.8196 4.4055C28.0299 3.53599 26.0752 2.96063 24.4854 2.52451C24.4431 2.51294 24.4315 2.45806 24.4657 2.42967C26.5754 0.679631 28.5161 0.234129 28.5161 0.234129C25.0804 0.0965633 22.1231 0.717675 19.6503 1.66741C15.9557 1.3716 13.6022 2.01367 13.6022 2.01367C13.6022 2.01367 14.6224 3.23383 15.019 3.91312C15.0667 3.99529 15.0417 4.10058 14.9634 4.15463C12.6397 5.7646 10.9724 7.53312 10.315 8.26949C9.58262 8.36844 8.31421 8.5435 7.20641 8.81643C7.16225 8.82745 7.12477 8.78306 7.1426 8.74117C8.25197 6.10094 9.46126 4.63927 9.46126 4.63927C9.46126 4.63927 2.33084 9.69807 0.979224 18.7885C0.979224 18.7885 1.56636 17.1771 3.55174 14.7348C3.57785 14.7028 3.62848 14.7092 3.64544 14.7469C4.20804 15.9914 4.85115 17.0963 5.1744 17.6036C4.08244 19.3597 3.32867 21.2746 2.86444 22.8416C2.84838 22.8959 2.80734 22.9397 2.7538 22.9598C1.10236 23.5861 0.681641 24.1835 0.681641 24.1835C0.938402 25.0598 1.44255 25.9138 2.07944 26.7187C2.13477 26.7882 2.16287 26.8753 2.15907 26.9641C1.98374 30.8436 3.23653 33.397 3.23653 33.397C3.51941 32.0421 4.07329 30.7261 4.77286 29.4909C4.80074 29.4415 4.86632 29.4293 4.91049 29.4643C6.54031 30.7574 8.22854 31.888 8.89843 32.2896C9.24398 33.1709 10.2333 35.4582 11.5553 37.8048C11.5829 37.8542 11.5604 37.9171 11.5071 37.9364C9.92414 38.5125 8.30014 38.7732 6.81111 38.411C6.81111 38.411 8.60687 40.6458 14.1463 41.5989C15.6831 43.4132 17.5534 44.9155 19.7375 45.4373C19.7375 45.4373 19.0973 44.7343 18.9391 42.1146C18.9358 42.0615 18.9784 42.0162 19.0317 42.0172C20.3993 42.0375 22.2547 42.0672 23.953 41.9442C24.5549 42.4182 25.8684 43.4585 27.1494 44.1216C27.2133 44.1548 27.2174 44.2442 27.156 44.2817C24.9039 45.6415 23.4056 45.7598 23.4056 45.7598C33.6062 45.977 39.7308 39.333 39.7308 39.333C38.0505 40.437 36.1102 41.1231 34.1788 41.532C34.1137 41.5458 34.0566 41.4883 34.0702 41.4232C34.4289 39.6903 34.3282 38.0149 34.303 37.4246C36.7233 36.8249 38.8344 35.7451 40.3976 34.6409C40.4289 34.6188 40.4712 34.6186 40.5031 34.6405C41.1538 35.0926 41.7106 35.5999 42.2661 36.4442C42.2661 36.4442 43.3246 34.949 43.6886 31.4846C46.3089 28.0685 46.6983 24.5719 46.6983 24.5719C46.0409 25.5986 45.0482 26.3384 43.8854 26.8685Z" fill="#EEF2FD"/>
</svg>
